<svg width="240" height="529" viewBox="0 0 240 529" fill="none" xmlns="http://www.w3.org/2000/svg">
<g clip-path="url(#clip0_2198_685)">
<rect width="240" height="529" rx="8" fill="#1C1C1C"/>
<path d="M15.1477 29.5V17.8636H19.5114C20.4053 17.8636 21.1553 18.0303 21.7614 18.3636C22.3712 18.697 22.8314 19.1553 23.142 19.7386C23.4564 20.3182 23.6136 20.9773 23.6136 21.7159C23.6136 22.4621 23.4564 23.125 23.142 23.7045C22.8277 24.2841 22.3636 24.7405 21.75 25.0739C21.1364 25.4034 20.3807 25.5682 19.483 25.5682H16.5909V23.8352H19.1989C19.7216 23.8352 20.1496 23.7443 20.483 23.5625C20.8163 23.3807 21.0625 23.1307 21.2216 22.8125C21.3845 22.4943 21.4659 22.1288 21.4659 21.7159C21.4659 21.303 21.3845 20.9394 21.2216 20.625C21.0625 20.3106 20.8144 20.0663 20.4773 19.892C20.1439 19.714 19.714 19.625 19.1875 19.625H17.2557V29.5H15.1477ZM27.4105 17.8636V29.5H25.3537V17.8636H27.4105ZM33.3324 29.6705C32.4801 29.6705 31.7415 29.483 31.1165 29.108C30.4915 28.733 30.0066 28.2083 29.6619 27.5341C29.321 26.8598 29.1506 26.072 29.1506 25.1705C29.1506 24.2689 29.321 23.4792 29.6619 22.8011C30.0066 22.1231 30.4915 21.5966 31.1165 21.2216C31.7415 20.8466 32.4801 20.6591 33.3324 20.6591C34.1847 20.6591 34.9233 20.8466 35.5483 21.2216C36.1733 21.5966 36.6563 22.1231 36.9972 22.8011C37.3419 23.4792 37.5142 24.2689 37.5142 25.1705C37.5142 26.072 37.3419 26.8598 36.9972 27.5341C36.6563 28.2083 36.1733 28.733 35.5483 29.108C34.9233 29.483 34.1847 29.6705 33.3324 29.6705ZM33.3438 28.0227C33.8059 28.0227 34.1922 27.8958 34.5028 27.642C34.8134 27.3845 35.0445 27.0398 35.196 26.608C35.3513 26.1761 35.429 25.6951 35.429 25.1648C35.429 24.6307 35.3513 24.1477 35.196 23.7159C35.0445 23.2803 34.8134 22.9337 34.5028 22.6761C34.1922 22.4186 33.8059 22.2898 33.3438 22.2898C32.8703 22.2898 32.4763 22.4186 32.1619 22.6761C31.8513 22.9337 31.6184 23.2803 31.4631 23.7159C31.3116 24.1477 31.2358 24.6307 31.2358 25.1648C31.2358 25.6951 31.3116 26.1761 31.4631 26.608C31.6184 27.0398 31.8513 27.3845 32.1619 27.642C32.4763 27.8958 32.8703 28.0227 33.3438 28.0227ZM43.6179 20.7727V22.3636H38.6009V20.7727H43.6179ZM39.8395 18.6818H41.8963V26.875C41.8963 27.1515 41.938 27.3636 42.0213 27.5114C42.1084 27.6553 42.2221 27.7538 42.3622 27.8068C42.5024 27.8598 42.6577 27.8864 42.8281 27.8864C42.9569 27.8864 43.0743 27.8769 43.1804 27.858C43.2902 27.839 43.3736 27.822 43.4304 27.8068L43.777 29.4148C43.6671 29.4527 43.5099 29.4943 43.3054 29.5398C43.1046 29.5852 42.8584 29.6117 42.5668 29.6193C42.0516 29.6345 41.5876 29.5568 41.1747 29.3864C40.7618 29.2121 40.4342 28.9432 40.1918 28.5795C39.9531 28.2159 39.8357 27.7614 39.8395 27.2159V18.6818ZM55.7216 21.0625C55.6686 20.5663 55.4451 20.1799 55.0511 19.9034C54.661 19.6269 54.1534 19.4886 53.5284 19.4886C53.089 19.4886 52.7121 19.5549 52.3977 19.6875C52.0833 19.8201 51.8428 20 51.6761 20.2273C51.5095 20.4545 51.4242 20.714 51.4205 21.0057C51.4205 21.2481 51.4754 21.4583 51.5852 21.6364C51.6989 21.8144 51.8523 21.9659 52.0455 22.0909C52.2386 22.2121 52.4527 22.3144 52.6875 22.3977C52.9223 22.4811 53.1591 22.5511 53.3977 22.608L54.4886 22.8807C54.928 22.983 55.3504 23.1212 55.7557 23.2955C56.1648 23.4697 56.5303 23.6894 56.8523 23.9545C57.178 24.2197 57.4356 24.5398 57.625 24.9148C57.8144 25.2898 57.9091 25.7292 57.9091 26.233C57.9091 26.9148 57.7348 27.5152 57.3864 28.0341C57.0379 28.5492 56.5341 28.9527 55.875 29.2443C55.2197 29.5322 54.4261 29.6761 53.4943 29.6761C52.589 29.6761 51.803 29.536 51.1364 29.2557C50.4735 28.9754 49.9545 28.5663 49.5795 28.0284C49.2083 27.4905 49.0076 26.8352 48.9773 26.0625H51.0511C51.0814 26.4678 51.2064 26.8049 51.4261 27.0739C51.6458 27.3428 51.9318 27.5436 52.2841 27.6761C52.6402 27.8087 53.0379 27.875 53.4773 27.875C53.9356 27.875 54.3371 27.8068 54.6818 27.6705C55.0303 27.5303 55.303 27.3371 55.5 27.0909C55.697 26.8409 55.7973 26.5492 55.8011 26.2159C55.7973 25.9129 55.7083 25.6629 55.5341 25.4659C55.3598 25.2652 55.1155 25.0985 54.8011 24.9659C54.4905 24.8295 54.1269 24.7083 53.7102 24.6023L52.3864 24.2614C51.428 24.0152 50.6705 23.642 50.1136 23.142C49.5606 22.6383 49.2841 21.9697 49.2841 21.1364C49.2841 20.4508 49.4697 19.8504 49.8409 19.3352C50.2159 18.8201 50.7254 18.4205 51.3693 18.1364C52.0133 17.8485 52.7424 17.7045 53.5568 17.7045C54.3826 17.7045 55.1061 17.8485 55.7273 18.1364C56.3523 18.4205 56.8428 18.8163 57.1989 19.3239C57.5549 19.8277 57.7386 20.4072 57.75 21.0625H55.7216ZM63.5043 29.6705C62.633 29.6705 61.8849 29.4792 61.2599 29.0966C60.6387 28.714 60.1596 28.1856 59.8224 27.5114C59.4891 26.8333 59.3224 26.053 59.3224 25.1705C59.3224 24.2841 59.4929 23.5019 59.8338 22.8239C60.1747 22.142 60.6558 21.6117 61.277 21.233C61.902 20.8504 62.6406 20.6591 63.4929 20.6591C64.2012 20.6591 64.8281 20.7898 65.3736 21.0511C65.9228 21.3087 66.3603 21.6742 66.6861 22.1477C67.0118 22.6174 67.1974 23.1667 67.2429 23.7955H65.277C65.1974 23.375 65.008 23.0246 64.7088 22.7443C64.4134 22.4602 64.0175 22.3182 63.5213 22.3182C63.1009 22.3182 62.7315 22.4318 62.4134 22.6591C62.0952 22.8826 61.8471 23.2045 61.669 23.625C61.4948 24.0455 61.4077 24.5492 61.4077 25.1364C61.4077 25.7311 61.4948 26.2424 61.669 26.6705C61.8433 27.0947 62.0876 27.4223 62.402 27.6534C62.7202 27.8807 63.0933 27.9943 63.5213 27.9943C63.8243 27.9943 64.0952 27.9375 64.3338 27.8239C64.5762 27.7064 64.7789 27.5379 64.9418 27.3182C65.1046 27.0985 65.2164 26.8314 65.277 26.517H67.2429C67.1937 27.1345 67.0118 27.6818 66.6974 28.1591C66.383 28.6326 65.955 29.0038 65.4134 29.2727C64.8717 29.5379 64.2353 29.6705 63.5043 29.6705ZM71.4432 29.6761C70.8902 29.6761 70.392 29.5777 69.9489 29.3807C69.5095 29.1799 69.161 28.8845 68.9034 28.4943C68.6496 28.1042 68.5227 27.6231 68.5227 27.0511C68.5227 26.5587 68.6136 26.1515 68.7955 25.8295C68.9773 25.5076 69.2254 25.25 69.5398 25.0568C69.8542 24.8636 70.2083 24.7178 70.6023 24.6193C71 24.517 71.411 24.4432 71.8352 24.3977C72.3466 24.3447 72.7614 24.2973 73.0795 24.2557C73.3977 24.2102 73.6288 24.142 73.7727 24.0511C73.9205 23.9564 73.9943 23.8106 73.9943 23.6136V23.5795C73.9943 23.1515 73.8674 22.8201 73.6136 22.5852C73.3598 22.3504 72.9943 22.233 72.517 22.233C72.0133 22.233 71.6136 22.3428 71.3182 22.5625C71.0265 22.7822 70.8295 23.0417 70.7273 23.3409L68.8068 23.0682C68.9583 22.5379 69.2083 22.0947 69.5568 21.7386C69.9053 21.3788 70.3314 21.1098 70.8352 20.9318C71.339 20.75 71.8958 20.6591 72.5057 20.6591C72.9261 20.6591 73.3447 20.7083 73.7614 20.8068C74.178 20.9053 74.5587 21.0682 74.9034 21.2955C75.2481 21.5189 75.5246 21.8239 75.733 22.2102C75.9451 22.5966 76.0511 23.0795 76.0511 23.6591V29.5H74.0739V28.3011H74.0057C73.8807 28.5436 73.7045 28.7708 73.4773 28.983C73.2538 29.1913 72.9716 29.3598 72.6307 29.4886C72.2936 29.6136 71.8977 29.6761 71.4432 29.6761ZM71.9773 28.1648C72.3902 28.1648 72.7481 28.0833 73.0511 27.9205C73.3542 27.7538 73.5871 27.5341 73.75 27.2614C73.9167 26.9886 74 26.6913 74 26.3693V25.3409C73.9356 25.3939 73.8258 25.4432 73.6705 25.4886C73.5189 25.5341 73.3485 25.5739 73.1591 25.608C72.9697 25.642 72.7822 25.6723 72.5966 25.6989C72.411 25.7254 72.25 25.7481 72.1136 25.767C71.8068 25.8087 71.5322 25.8769 71.2898 25.9716C71.0473 26.0663 70.8561 26.1989 70.7159 26.3693C70.5758 26.536 70.5057 26.7519 70.5057 27.017C70.5057 27.3958 70.6439 27.6818 70.9205 27.875C71.197 28.0682 71.5492 28.1648 71.9773 28.1648ZM80.1761 17.8636V29.5H78.1193V17.8636H80.1761ZM86.1548 29.6705C85.2798 29.6705 84.5241 29.4886 83.8878 29.125C83.2552 28.7576 82.7685 28.2386 82.4276 27.5682C82.0866 26.8939 81.9162 26.1004 81.9162 25.1875C81.9162 24.2898 82.0866 23.5019 82.4276 22.8239C82.7723 22.142 83.2533 21.6117 83.8707 21.233C84.4882 20.8504 85.2135 20.6591 86.0469 20.6591C86.5848 20.6591 87.0923 20.7462 87.5696 20.9205C88.0507 21.0909 88.4749 21.3561 88.8423 21.7159C89.2135 22.0758 89.5052 22.5341 89.7173 23.0909C89.9295 23.6439 90.0355 24.303 90.0355 25.0682V25.6989H82.8821V24.3125H88.0639C88.0601 23.9186 87.9749 23.5682 87.8082 23.2614C87.6416 22.9508 87.4086 22.7064 87.1094 22.5284C86.8139 22.3504 86.4692 22.2614 86.0753 22.2614C85.6548 22.2614 85.2855 22.3636 84.9673 22.5682C84.6491 22.7689 84.401 23.0341 84.223 23.3636C84.0488 23.6894 83.9598 24.0473 83.956 24.4375V25.6477C83.956 26.1553 84.0488 26.5909 84.2344 26.9545C84.42 27.3144 84.6795 27.5909 85.0128 27.7841C85.3461 27.9735 85.7363 28.0682 86.1832 28.0682C86.4825 28.0682 86.7533 28.0265 86.9957 27.9432C87.2382 27.8561 87.4484 27.7292 87.6264 27.5625C87.8045 27.3958 87.9389 27.1894 88.0298 26.9432L89.9503 27.1591C89.8291 27.6667 89.598 28.1098 89.2571 28.4886C88.92 28.8636 88.4882 29.1553 87.9616 29.3636C87.4351 29.5682 86.8329 29.6705 86.1548 29.6705ZM105.795 21.7898H103.67C103.61 21.4413 103.498 21.1326 103.335 20.8636C103.172 20.5909 102.97 20.3598 102.727 20.1705C102.485 19.9811 102.208 19.839 101.898 19.7443C101.591 19.6458 101.259 19.5966 100.903 19.5966C100.271 19.5966 99.7102 19.7557 99.2216 20.0739C98.733 20.3883 98.3504 20.8504 98.0739 21.4602C97.7973 22.0663 97.6591 22.8068 97.6591 23.6818C97.6591 24.572 97.7973 25.322 98.0739 25.9318C98.3542 26.5379 98.7367 26.9962 99.2216 27.3068C99.7102 27.6136 100.269 27.767 100.898 27.767C101.246 27.767 101.572 27.7216 101.875 27.6307C102.182 27.536 102.456 27.3977 102.699 27.2159C102.945 27.0341 103.152 26.8106 103.318 26.5455C103.489 26.2803 103.606 25.9773 103.67 25.6364L105.795 25.6477C105.716 26.2008 105.544 26.7197 105.278 27.2045C105.017 27.6894 104.674 28.1174 104.25 28.4886C103.826 28.8561 103.33 29.1439 102.761 29.3523C102.193 29.5568 101.563 29.6591 100.869 29.6591C99.8466 29.6591 98.9337 29.4223 98.1307 28.9489C97.3277 28.4754 96.6951 27.7917 96.233 26.8977C95.7708 26.0038 95.5398 24.9318 95.5398 23.6818C95.5398 22.428 95.7727 21.3561 96.2386 20.4659C96.7045 19.572 97.339 18.8883 98.142 18.4148C98.9451 17.9413 99.8542 17.7045 100.869 17.7045C101.517 17.7045 102.119 17.7955 102.676 17.9773C103.233 18.1591 103.729 18.4261 104.165 18.7784C104.6 19.1269 104.958 19.5549 105.239 20.0625C105.523 20.5663 105.708 21.142 105.795 21.7898ZM111.442 29.6705C110.589 29.6705 109.851 29.483 109.226 29.108C108.601 28.733 108.116 28.2083 107.771 27.5341C107.43 26.8598 107.26 26.072 107.26 25.1705C107.26 24.2689 107.43 23.4792 107.771 22.8011C108.116 22.1231 108.601 21.5966 109.226 21.2216C109.851 20.8466 110.589 20.6591 111.442 20.6591C112.294 20.6591 113.033 20.8466 113.658 21.2216C114.283 21.5966 114.766 22.1231 115.107 22.8011C115.451 23.4792 115.624 24.2689 115.624 25.1705C115.624 26.072 115.451 26.8598 115.107 27.5341C114.766 28.2083 114.283 28.733 113.658 29.108C113.033 29.483 112.294 29.6705 111.442 29.6705ZM111.453 28.0227C111.915 28.0227 112.302 27.8958 112.612 27.642C112.923 27.3845 113.154 27.0398 113.305 26.608C113.461 26.1761 113.538 25.6951 113.538 25.1648C113.538 24.6307 113.461 24.1477 113.305 23.7159C113.154 23.2803 112.923 22.9337 112.612 22.6761C112.302 22.4186 111.915 22.2898 111.453 22.2898C110.98 22.2898 110.586 22.4186 110.271 22.6761C109.961 22.9337 109.728 23.2803 109.572 23.7159C109.421 24.1477 109.345 24.6307 109.345 25.1648C109.345 25.6951 109.421 26.1761 109.572 26.608C109.728 27.0398 109.961 27.3845 110.271 27.642C110.586 27.8958 110.98 28.0227 111.453 28.0227ZM119.426 24.3864V29.5H117.369V20.7727H119.335V22.2557H119.438C119.638 21.767 119.958 21.3788 120.398 21.0909C120.841 20.803 121.388 20.6591 122.04 20.6591C122.642 20.6591 123.167 20.7879 123.614 21.0455C124.064 21.303 124.413 21.6761 124.659 22.1648C124.909 22.6534 125.032 23.2462 125.028 23.9432V29.5H122.972V24.2614C122.972 23.678 122.82 23.2216 122.517 22.892C122.218 22.5625 121.803 22.3977 121.273 22.3977C120.913 22.3977 120.593 22.4773 120.312 22.6364C120.036 22.7917 119.818 23.017 119.659 23.3125C119.504 23.608 119.426 23.9659 119.426 24.3864ZM131.477 20.7727V22.3636H126.46V20.7727H131.477ZM127.699 18.6818H129.756V26.875C129.756 27.1515 129.797 27.3636 129.881 27.5114C129.968 27.6553 130.081 27.7538 130.222 27.8068C130.362 27.8598 130.517 27.8864 130.688 27.8864C130.816 27.8864 130.934 27.8769 131.04 27.858C131.15 27.839 131.233 27.822 131.29 27.8068L131.636 29.4148C131.527 29.4527 131.369 29.4943 131.165 29.5398C130.964 29.5852 130.718 29.6117 130.426 29.6193C129.911 29.6345 129.447 29.5568 129.034 29.3864C128.621 29.2121 128.294 28.9432 128.051 28.5795C127.813 28.2159 127.695 27.7614 127.699 27.2159V18.6818ZM133.197 29.5V20.7727H135.192V22.2273H135.283C135.442 21.7235 135.714 21.3352 136.101 21.0625C136.491 20.786 136.936 20.6477 137.436 20.6477C137.55 20.6477 137.677 20.6534 137.817 20.6648C137.961 20.6723 138.08 20.6856 138.175 20.7045V22.5966C138.088 22.5663 137.949 22.5398 137.76 22.517C137.574 22.4905 137.394 22.4773 137.22 22.4773C136.845 22.4773 136.508 22.5587 136.209 22.7216C135.913 22.8807 135.68 23.1023 135.51 23.3864C135.339 23.6705 135.254 23.9981 135.254 24.3693V29.5H133.197ZM142.989 29.6705C142.136 29.6705 141.398 29.483 140.773 29.108C140.148 28.733 139.663 28.2083 139.318 27.5341C138.977 26.8598 138.807 26.072 138.807 25.1705C138.807 24.2689 138.977 23.4792 139.318 22.8011C139.663 22.1231 140.148 21.5966 140.773 21.2216C141.398 20.8466 142.136 20.6591 142.989 20.6591C143.841 20.6591 144.58 20.8466 145.205 21.2216C145.83 21.5966 146.313 22.1231 146.653 22.8011C146.998 23.4792 147.17 24.2689 147.17 25.1705C147.17 26.072 146.998 26.8598 146.653 27.5341C146.313 28.2083 145.83 28.733 145.205 29.108C144.58 29.483 143.841 29.6705 142.989 29.6705ZM143 28.0227C143.462 28.0227 143.848 27.8958 144.159 27.642C144.47 27.3845 144.701 27.0398 144.852 26.608C145.008 26.1761 145.085 25.6951 145.085 25.1648C145.085 24.6307 145.008 24.1477 144.852 23.7159C144.701 23.2803 144.47 22.9337 144.159 22.6761C143.848 22.4186 143.462 22.2898 143 22.2898C142.527 22.2898 142.133 22.4186 141.818 22.6761C141.508 22.9337 141.275 23.2803 141.119 23.7159C140.968 24.1477 140.892 24.6307 140.892 25.1648C140.892 25.6951 140.968 26.1761 141.119 26.608C141.275 27.0398 141.508 27.3845 141.818 27.642C142.133 27.8958 142.527 28.0227 143 28.0227ZM150.973 17.8636V29.5H148.916V17.8636H150.973Z" fill="#E0E0E0"/>
<rect x="200" y="10" width="28" height="28" rx="4" fill="#1C1C1C"/>
<path d="M209.333 22L214 26.6667L218.667 22" stroke="#E0E0E0" stroke-linecap="round" stroke-linejoin="round"/>
<rect x="12" y="48" width="216" height="40" rx="8" fill="#2A2A2A"/>
<rect x="18" y="54" width="96" height="28" rx="4" fill="#2A2A2A"/>
<path d="M30.3335 62.6668C30.3335 63.2955 30.3335 63.6095 30.5288 63.8048C30.7242 64.0002 31.0382 64.0002 31.6668 64.0002C32.2955 64.0002 32.6095 64.0002 32.8048 63.8048C33.0002 63.6095 33.0002 63.2955 33.0002 62.6668C33.0002 62.0382 33.0002 61.7242 32.8048 61.5288C32.6095 61.3335 32.2955 61.3335 31.6668 61.3335C31.0382 61.3335 30.7242 61.3335 30.5288 61.5288C30.3335 61.7242 30.3335 62.0382 30.3335 62.6668ZM30.3335 68.0002C30.3335 68.6288 30.3335 68.9428 30.5288 69.1382C30.7242 69.3335 31.0382 69.3335 31.6668 69.3335C32.2955 69.3335 32.6095 69.3335 32.8048 69.1382C33.0002 68.9428 33.0002 68.6288 33.0002 68.0002C33.0002 67.3715 33.0002 67.0575 32.8048 66.8622C32.6095 66.6668 32.2955 66.6668 31.6668 66.6668C31.0382 66.6668 30.7242 66.6668 30.5288 66.8622C30.3335 67.0575 30.3335 67.3715 30.3335 68.0002ZM30.3335 73.3335C30.3335 73.9622 30.3335 74.2762 30.5288 74.4715C30.7242 74.6668 31.0382 74.6668 31.6668 74.6668C32.2955 74.6668 32.6095 74.6668 32.8048 74.4715C33.0002 74.2762 33.0002 73.9622 33.0002 73.3335C33.0002 72.7048 33.0002 72.3908 32.8048 72.1955C32.6095 72.0002 32.2955 72.0002 31.6668 72.0002C31.0382 72.0002 30.7242 72.0002 30.5288 72.1955C30.3335 72.3908 30.3335 72.7048 30.3335 73.3335ZM35.6668 62.6668C35.6668 63.2955 35.6668 63.6095 35.8622 63.8048C36.0575 64.0002 36.3715 64.0002 37.0002 64.0002C37.6288 64.0002 37.9428 64.0002 38.1382 63.8048C38.3335 63.6095 38.3335 63.2955 38.3335 62.6668C38.3335 62.0382 38.3335 61.7242 38.1382 61.5288C37.9428 61.3335 37.6288 61.3335 37.0002 61.3335C36.3715 61.3335 36.0575 61.3335 35.8622 61.5288C35.6668 61.7242 35.6668 62.0382 35.6668 62.6668ZM35.6668 68.0002C35.6668 68.6288 35.6668 68.9428 35.8622 69.1382C36.0575 69.3335 36.3715 69.3335 37.0002 69.3335C37.6288 69.3335 37.9428 69.3335 38.1382 69.1382C38.3335 68.9428 38.3335 68.6288 38.3335 68.0002C38.3335 67.3715 38.3335 67.0575 38.1382 66.8622C37.9428 66.6668 37.6288 66.6668 37.0002 66.6668C36.3715 66.6668 36.0575 66.6668 35.8622 66.8622C35.6668 67.0575 35.6668 67.3715 35.6668 68.0002ZM35.6668 73.3335C35.6668 73.9622 35.6668 74.2762 35.8622 74.4715C36.0575 74.6668 36.3715 74.6668 37.0002 74.6668C37.6288 74.6668 37.9428 74.6668 38.1382 74.4715C38.3335 74.2762 38.3335 73.9622 38.3335 73.3335C38.3335 72.7048 38.3335 72.3908 38.1382 72.1955C37.9428 72.0002 37.6288 72.0002 37.0002 72.0002C36.3715 72.0002 36.0575 72.0002 35.8622 72.1955C35.6668 72.3908 35.6668 72.7048 35.6668 73.3335ZM41.0002 62.6668C41.0002 63.2955 41.0002 63.6095 41.1955 63.8048C41.3908 64.0002 41.7048 64.0002 42.3335 64.0002C42.9622 64.0002 43.2762 64.0002 43.4715 63.8048C43.6668 63.6095 43.6668 63.2955 43.6668 62.6668C43.6668 62.0382 43.6668 61.7242 43.4715 61.5288C43.2762 61.3335 42.9622 61.3335 42.3335 61.3335C41.7048 61.3335 41.3908 61.3335 41.1955 61.5288C41.0002 61.7242 41.0002 62.0382 41.0002 62.6668ZM41.0002 68.0002C41.0002 68.6288 41.0002 68.9428 41.1955 69.1382C41.3908 69.3335 41.7048 69.3335 42.3335 69.3335C42.9622 69.3335 43.2762 69.3335 43.4715 69.1382C43.6668 68.9428 43.6668 68.6288 43.6668 68.0002C43.6668 67.3715 43.6668 67.0575 43.4715 66.8622C43.2762 66.6668 42.9622 66.6668 42.3335 66.6668C41.7048 66.6668 41.3908 66.6668 41.1955 66.8622C41.0002 67.0575 41.0002 67.3715 41.0002 68.0002ZM41.0002 73.3335C41.0002 73.9622 41.0002 74.2762 41.1955 74.4715C41.3908 74.6668 41.7048 74.6668 42.3335 74.6668C42.9622 74.6668 43.2762 74.6668 43.4715 74.4715C43.6668 74.2762 43.6668 73.9622 43.6668 73.3335C43.6668 72.7048 43.6668 72.3908 43.4715 72.1955C43.2762 72.0002 42.9622 72.0002 42.3335 72.0002C41.7048 72.0002 41.3908 72.0002 41.1955 72.1955C41.0002 72.3908 41.0002 72.7048 41.0002 73.3335Z" fill="#E0E0E0"/>
<path d="M54.9716 73V71.8864L58.4169 68.3168C58.7848 67.929 59.0881 67.5893 59.3267 67.2976C59.5687 67.0026 59.7493 66.7225 59.8686 66.4574C59.9879 66.1922 60.0476 65.9105 60.0476 65.6122C60.0476 65.2741 59.968 64.9825 59.8089 64.7372C59.6499 64.4886 59.4328 64.2981 59.1577 64.1655C58.8826 64.0296 58.5727 63.9616 58.228 63.9616C57.8634 63.9616 57.5452 64.0362 57.2734 64.1854C57.0017 64.3345 56.7929 64.545 56.647 64.8168C56.5012 65.0885 56.4283 65.4067 56.4283 65.7713H54.9616C54.9616 65.1515 55.1042 64.6096 55.3892 64.1456C55.6742 63.6816 56.0653 63.322 56.5625 63.0668C57.0597 62.8082 57.6248 62.679 58.2578 62.679C58.8975 62.679 59.4609 62.8066 59.9482 63.0618C60.4387 63.3137 60.8215 63.6584 61.0966 64.0959C61.3717 64.5301 61.5092 65.0206 61.5092 65.5675C61.5092 65.9453 61.438 66.3149 61.2955 66.6761C61.1563 67.0374 60.9126 67.4401 60.5646 67.8842C60.2166 68.325 59.7327 68.8603 59.1129 69.4901L57.0895 71.608V71.6825H61.6733V73H54.9716ZM66.9929 73H63.6967V62.8182H67.0973C68.0949 62.8182 68.9517 63.022 69.6676 63.4297C70.3835 63.834 70.9321 64.4157 71.3132 65.1747C71.6977 65.9304 71.8899 66.8369 71.8899 67.8942C71.8899 68.9548 71.696 69.8662 71.3082 70.6286C70.9238 71.3909 70.367 71.9775 69.6378 72.3885C68.9086 72.7962 68.027 73 66.9929 73ZM65.233 71.6577H66.9084C67.6839 71.6577 68.3286 71.5118 68.8423 71.2202C69.3561 70.9252 69.7405 70.4993 69.9957 69.9425C70.2509 69.3823 70.3786 68.6996 70.3786 67.8942C70.3786 67.0954 70.2509 66.4176 69.9957 65.8608C69.7438 65.304 69.3677 64.8814 68.8672 64.593C68.3667 64.3047 67.7453 64.1605 67.0028 64.1605H65.233V71.6577ZM77.5053 73V62.8182H81.1346C81.9267 62.8182 82.583 62.9624 83.1033 63.2507C83.6237 63.5391 84.0131 63.9335 84.2717 64.4339C84.5302 64.9311 84.6594 65.4912 84.6594 66.1143C84.6594 66.7408 84.5285 67.3042 84.2667 67.8047C84.0082 68.3018 83.6171 68.6963 83.0934 68.9879C82.573 69.2763 81.9184 69.4205 81.1296 69.4205H78.6339V68.1179H80.9904C81.4909 68.1179 81.8969 68.0317 82.2085 67.8594C82.52 67.6837 82.7487 67.4451 82.8945 67.1435C83.0404 66.8419 83.1133 66.4988 83.1133 66.1143C83.1133 65.7299 83.0404 65.3885 82.8945 65.0902C82.7487 64.7919 82.5183 64.5582 82.2035 64.3892C81.8919 64.2202 81.4809 64.1357 80.9705 64.1357H79.0415V73H77.5053ZM88.495 73.169C88.0111 73.169 87.5736 73.0795 87.1825 72.9006C86.7914 72.7183 86.4815 72.4548 86.2528 72.1101C86.0275 71.7654 85.9148 71.3428 85.9148 70.8423C85.9148 70.4115 85.9976 70.0568 86.1634 69.7784C86.3291 69.5 86.5528 69.2796 86.8345 69.1172C87.1162 68.9548 87.4311 68.8321 87.7791 68.7493C88.1271 68.6664 88.4818 68.6035 88.843 68.5604C89.3004 68.5073 89.6716 68.4643 89.9567 68.4311C90.2417 68.3946 90.4489 68.3366 90.5781 68.2571C90.7074 68.1776 90.772 68.0483 90.772 67.8693V67.8345C90.772 67.4003 90.6494 67.0639 90.4041 66.8253C90.1622 66.5866 89.8009 66.4673 89.3203 66.4673C88.8198 66.4673 88.4254 66.5784 88.1371 66.8004C87.852 67.0192 87.6548 67.2628 87.5455 67.5312L86.1484 67.2131C86.3142 66.7491 86.5561 66.3745 86.8743 66.0895C87.1958 65.8011 87.5653 65.5923 87.983 65.4631C88.4006 65.3305 88.8397 65.2642 89.3004 65.2642C89.6054 65.2642 89.9285 65.3007 90.2699 65.3736C90.6146 65.4432 90.9361 65.5724 91.2344 65.7614C91.536 65.9503 91.7829 66.2204 91.9751 66.5717C92.1674 66.9197 92.2635 67.3722 92.2635 67.929V73H90.8118V71.956H90.7521C90.656 72.1482 90.5118 72.3371 90.3196 72.5227C90.1274 72.7083 89.8804 72.8625 89.5788 72.9851C89.2772 73.1077 88.916 73.169 88.495 73.169ZM88.8182 71.9759C89.2292 71.9759 89.5805 71.8946 89.8722 71.7322C90.1671 71.5698 90.3909 71.3577 90.5433 71.0959C90.6991 70.8307 90.777 70.5473 90.777 70.2457V69.2614C90.724 69.3144 90.6212 69.3641 90.4688 69.4105C90.3196 69.4536 90.1489 69.4917 89.9567 69.5249C89.7644 69.5547 89.5772 69.5829 89.3949 69.6094C89.2126 69.6326 89.0601 69.6525 88.9375 69.669C88.6491 69.7055 88.3857 69.7668 88.147 69.853C87.9117 69.9392 87.7228 70.0634 87.5803 70.2259C87.4411 70.3849 87.3714 70.5971 87.3714 70.8622C87.3714 71.2301 87.5073 71.5085 87.7791 71.6974C88.0509 71.883 88.3973 71.9759 88.8182 71.9759ZM97.1021 73.1491C96.4856 73.1491 95.9354 72.9917 95.4515 72.6768C94.9709 72.3587 94.5931 71.9062 94.318 71.3196C94.0462 70.7296 93.9103 70.022 93.9103 69.1967C93.9103 68.3714 94.0479 67.6655 94.323 67.0788C94.6014 66.4922 94.9825 66.0431 95.4664 65.7315C95.9503 65.42 96.4989 65.2642 97.112 65.2642C97.586 65.2642 97.9672 65.3438 98.2555 65.5028C98.5472 65.6586 98.7725 65.8409 98.9316 66.0497C99.094 66.2585 99.22 66.4425 99.3095 66.6016H99.399V62.8182H100.885V73H99.4338V71.8118H99.3095C99.22 71.9742 99.0907 72.1598 98.9217 72.3686C98.756 72.5774 98.5273 72.7597 98.2356 72.9155C97.944 73.0713 97.5661 73.1491 97.1021 73.1491ZM97.4302 71.8814C97.8578 71.8814 98.219 71.7687 98.514 71.5433C98.8123 71.3146 99.0377 70.9981 99.1902 70.5938C99.3459 70.1894 99.4238 69.7187 99.4238 69.1818C99.4238 68.6515 99.3476 68.1875 99.1951 67.7898C99.0427 67.392 98.819 67.0821 98.524 66.8601C98.229 66.638 97.8644 66.527 97.4302 66.527C96.9828 66.527 96.6099 66.643 96.3116 66.875C96.0133 67.107 95.7879 67.4235 95.6355 67.8246C95.4863 68.2256 95.4118 68.678 95.4118 69.1818C95.4118 69.6922 95.488 70.1513 95.6404 70.5589C95.7929 70.9666 96.0183 71.2898 96.3166 71.5284C96.6182 71.7637 96.9894 71.8814 97.4302 71.8814Z" fill="#E0E0E0"/>
<rect x="126" y="54" width="96" height="28" rx="4" fill="#2A2A2A"/>
<path d="M138.333 62.6668C138.333 63.2955 138.333 63.6095 138.529 63.8048C138.724 64.0002 139.038 64.0002 139.667 64.0002C140.295 64.0002 140.609 64.0002 140.805 63.8048C141 63.6095 141 63.2955 141 62.6668C141 62.0382 141 61.7242 140.805 61.5288C140.609 61.3335 140.295 61.3335 139.667 61.3335C139.038 61.3335 138.724 61.3335 138.529 61.5288C138.333 61.7242 138.333 62.0382 138.333 62.6668ZM138.333 68.0002C138.333 68.6288 138.333 68.9428 138.529 69.1382C138.724 69.3335 139.038 69.3335 139.667 69.3335C140.295 69.3335 140.609 69.3335 140.805 69.1382C141 68.9428 141 68.6288 141 68.0002C141 67.3715 141 67.0575 140.805 66.8622C140.609 66.6668 140.295 66.6668 139.667 66.6668C139.038 66.6668 138.724 66.6668 138.529 66.8622C138.333 67.0575 138.333 67.3715 138.333 68.0002ZM138.333 73.3335C138.333 73.9622 138.333 74.2762 138.529 74.4715C138.724 74.6668 139.038 74.6668 139.667 74.6668C140.295 74.6668 140.609 74.6668 140.805 74.4715C141 74.2762 141 73.9622 141 73.3335C141 72.7048 141 72.3908 140.805 72.1955C140.609 72.0002 140.295 72.0002 139.667 72.0002C139.038 72.0002 138.724 72.0002 138.529 72.1955C138.333 72.3908 138.333 72.7048 138.333 73.3335ZM143.667 62.6668C143.667 63.2955 143.667 63.6095 143.862 63.8048C144.057 64.0002 144.371 64.0002 145 64.0002C145.629 64.0002 145.943 64.0002 146.138 63.8048C146.333 63.6095 146.333 63.2955 146.333 62.6668C146.333 62.0382 146.333 61.7242 146.138 61.5288C145.943 61.3335 145.629 61.3335 145 61.3335C144.371 61.3335 144.057 61.3335 143.862 61.5288C143.667 61.7242 143.667 62.0382 143.667 62.6668ZM143.667 68.0002C143.667 68.6288 143.667 68.9428 143.862 69.1382C144.057 69.3335 144.371 69.3335 145 69.3335C145.629 69.3335 145.943 69.3335 146.138 69.1382C146.333 68.9428 146.333 68.6288 146.333 68.0002C146.333 67.3715 146.333 67.0575 146.138 66.8622C145.943 66.6668 145.629 66.6668 145 66.6668C144.371 66.6668 144.057 66.6668 143.862 66.8622C143.667 67.0575 143.667 67.3715 143.667 68.0002ZM143.667 73.3335C143.667 73.9622 143.667 74.2762 143.862 74.4715C144.057 74.6668 144.371 74.6668 145 74.6668C145.629 74.6668 145.943 74.6668 146.138 74.4715C146.333 74.2762 146.333 73.9622 146.333 73.3335C146.333 72.7048 146.333 72.3908 146.138 72.1955C145.943 72.0002 145.629 72.0002 145 72.0002C144.371 72.0002 144.057 72.0002 143.862 72.1955C143.667 72.3908 143.667 72.7048 143.667 73.3335ZM149 62.6668C149 63.2955 149 63.6095 149.195 63.8048C149.391 64.0002 149.705 64.0002 150.333 64.0002C150.962 64.0002 151.276 64.0002 151.471 63.8048C151.667 63.6095 151.667 63.2955 151.667 62.6668C151.667 62.0382 151.667 61.7242 151.471 61.5288C151.276 61.3335 150.962 61.3335 150.333 61.3335C149.705 61.3335 149.391 61.3335 149.195 61.5288C149 61.7242 149 62.0382 149 62.6668ZM149 68.0002C149 68.6288 149 68.9428 149.195 69.1382C149.391 69.3335 149.705 69.3335 150.333 69.3335C150.962 69.3335 151.276 69.3335 151.471 69.1382C151.667 68.9428 151.667 68.6288 151.667 68.0002C151.667 67.3715 151.667 67.0575 151.471 66.8622C151.276 66.6668 150.962 66.6668 150.333 66.6668C149.705 66.6668 149.391 66.6668 149.195 66.8622C149 67.0575 149 67.3715 149 68.0002ZM149 73.3335C149 73.9622 149 74.2762 149.195 74.4715C149.391 74.6668 149.705 74.6668 150.333 74.6668C150.962 74.6668 151.276 74.6668 151.471 74.4715C151.667 74.2762 151.667 73.9622 151.667 73.3335C151.667 72.7048 151.667 72.3908 151.471 72.1955C151.276 72.0002 150.962 72.0002 150.333 72.0002C149.705 72.0002 149.391 72.0002 149.195 72.1955C149 72.3908 149 72.7048 149 73.3335Z" fill="#E0E0E0"/>
<path d="M162.972 73V71.8864L166.417 68.3168C166.785 67.929 167.088 67.5893 167.327 67.2976C167.569 67.0026 167.749 66.7225 167.869 66.4574C167.988 66.1922 168.048 65.9105 168.048 65.6122C168.048 65.2741 167.968 64.9825 167.809 64.7372C167.65 64.4886 167.433 64.2981 167.158 64.1655C166.883 64.0296 166.573 63.9616 166.228 63.9616C165.863 63.9616 165.545 64.0362 165.273 64.1854C165.002 64.3345 164.793 64.545 164.647 64.8168C164.501 65.0885 164.428 65.4067 164.428 65.7713H162.962C162.962 65.1515 163.104 64.6096 163.389 64.1456C163.674 63.6816 164.065 63.322 164.562 63.0668C165.06 62.8082 165.625 62.679 166.258 62.679C166.897 62.679 167.461 62.8066 167.948 63.0618C168.439 63.3137 168.821 63.6584 169.097 64.0959C169.372 64.5301 169.509 65.0206 169.509 65.5675C169.509 65.9453 169.438 66.3149 169.295 66.6761C169.156 67.0374 168.913 67.4401 168.565 67.8842C168.217 68.325 167.733 68.8603 167.113 69.4901L165.089 71.608V71.6825H169.673V73H162.972ZM174.993 73H171.697V62.8182H175.097C176.095 62.8182 176.952 63.022 177.668 63.4297C178.384 63.834 178.932 64.4157 179.313 65.1747C179.698 65.9304 179.89 66.8369 179.89 67.8942C179.89 68.9548 179.696 69.8662 179.308 70.6286C178.924 71.3909 178.367 71.9775 177.638 72.3885C176.909 72.7962 176.027 73 174.993 73ZM173.233 71.6577H174.908C175.684 71.6577 176.329 71.5118 176.842 71.2202C177.356 70.9252 177.741 70.4993 177.996 69.9425C178.251 69.3823 178.379 68.6996 178.379 67.8942C178.379 67.0954 178.251 66.4176 177.996 65.8608C177.744 65.304 177.368 64.8814 176.867 64.593C176.367 64.3047 175.745 64.1605 175.003 64.1605H173.233V71.6577ZM185.505 73V62.8182H189.135C189.927 62.8182 190.583 62.9624 191.103 63.2507C191.624 63.5391 192.013 63.9335 192.272 64.4339C192.53 64.9311 192.659 65.4912 192.659 66.1143C192.659 66.7408 192.529 67.3042 192.267 67.8047C192.008 68.3018 191.617 68.6963 191.093 68.9879C190.573 69.2763 189.918 69.4205 189.13 69.4205H186.634V68.1179H188.99C189.491 68.1179 189.897 68.0317 190.208 67.8594C190.52 67.6837 190.749 67.4451 190.895 67.1435C191.04 66.8419 191.113 66.4988 191.113 66.1143C191.113 65.7299 191.04 65.3885 190.895 65.0902C190.749 64.7919 190.518 64.5582 190.203 64.3892C189.892 64.2202 189.481 64.1357 188.971 64.1357H187.042V73H185.505ZM196.495 73.169C196.011 73.169 195.574 73.0795 195.183 72.9006C194.791 72.7183 194.482 72.4548 194.253 72.1101C194.027 71.7654 193.915 71.3428 193.915 70.8423C193.915 70.4115 193.998 70.0568 194.163 69.7784C194.329 69.5 194.553 69.2796 194.835 69.1172C195.116 68.9548 195.431 68.8321 195.779 68.7493C196.127 68.6664 196.482 68.6035 196.843 68.5604C197.3 68.5073 197.672 68.4643 197.957 68.4311C198.242 68.3946 198.449 68.3366 198.578 68.2571C198.707 68.1776 198.772 68.0483 198.772 67.8693V67.8345C198.772 67.4003 198.649 67.0639 198.404 66.8253C198.162 66.5866 197.801 66.4673 197.32 66.4673C196.82 66.4673 196.425 66.5784 196.137 66.8004C195.852 67.0192 195.655 67.2628 195.545 67.5312L194.148 67.2131C194.314 66.7491 194.556 66.3745 194.874 66.0895C195.196 65.8011 195.565 65.5923 195.983 65.4631C196.401 65.3305 196.84 65.2642 197.3 65.2642C197.605 65.2642 197.929 65.3007 198.27 65.3736C198.615 65.4432 198.936 65.5724 199.234 65.7614C199.536 65.9503 199.783 66.2204 199.975 66.5717C200.167 66.9197 200.263 67.3722 200.263 67.929V73H198.812V71.956H198.752C198.656 72.1482 198.512 72.3371 198.32 72.5227C198.127 72.7083 197.88 72.8625 197.579 72.9851C197.277 73.1077 196.916 73.169 196.495 73.169ZM196.818 71.9759C197.229 71.9759 197.58 71.8946 197.872 71.7322C198.167 71.5698 198.391 71.3577 198.543 71.0959C198.699 70.8307 198.777 70.5473 198.777 70.2457V69.2614C198.724 69.3144 198.621 69.3641 198.469 69.4105C198.32 69.4536 198.149 69.4917 197.957 69.5249C197.764 69.5547 197.577 69.5829 197.395 69.6094C197.213 69.6326 197.06 69.6525 196.938 69.669C196.649 69.7055 196.386 69.7668 196.147 69.853C195.912 69.9392 195.723 70.0634 195.58 70.2259C195.441 70.3849 195.371 70.5971 195.371 70.8622C195.371 71.2301 195.507 71.5085 195.779 71.6974C196.051 71.883 196.397 71.9759 196.818 71.9759ZM205.102 73.1491C204.486 73.1491 203.935 72.9917 203.452 72.6768C202.971 72.3587 202.593 71.9062 202.318 71.3196C202.046 70.7296 201.91 70.022 201.91 69.1967C201.91 68.3714 202.048 67.6655 202.323 67.0788C202.601 66.4922 202.983 66.0431 203.466 65.7315C203.95 65.42 204.499 65.2642 205.112 65.2642C205.586 65.2642 205.967 65.3438 206.256 65.5028C206.547 65.6586 206.773 65.8409 206.932 66.0497C207.094 66.2585 207.22 66.4425 207.309 66.6016H207.399V62.8182H208.885V73H207.434V71.8118H207.309C207.22 71.9742 207.091 72.1598 206.922 72.3686C206.756 72.5774 206.527 72.7597 206.236 72.9155C205.944 73.0713 205.566 73.1491 205.102 73.1491ZM205.43 71.8814C205.858 71.8814 206.219 71.7687 206.514 71.5433C206.812 71.3146 207.038 70.9981 207.19 70.5938C207.346 70.1894 207.424 69.7187 207.424 69.1818C207.424 68.6515 207.348 68.1875 207.195 67.7898C207.043 67.392 206.819 67.0821 206.524 66.8601C206.229 66.638 205.864 66.527 205.43 66.527C204.983 66.527 204.61 66.643 204.312 66.875C204.013 67.107 203.788 67.4235 203.635 67.8246C203.486 68.2256 203.412 68.678 203.412 69.1818C203.412 69.6922 203.488 70.1513 203.64 70.5589C203.793 70.9666 204.018 71.2898 204.317 71.5284C204.618 71.7637 204.989 71.8814 205.43 71.8814Z" fill="#E0E0E0"/>
<path d="M12 100H228" stroke="#404040" stroke-linecap="round"/>
<path d="M13.1186 125V114.818H16.7479C17.54 114.818 18.1963 114.962 18.7166 115.251C19.237 115.539 19.6264 115.933 19.8849 116.434C20.1435 116.931 20.2727 117.491 20.2727 118.114C20.2727 118.741 20.1418 119.304 19.88 119.805C19.6214 120.302 19.2304 120.696 18.7067 120.988C18.1863 121.276 17.5317 121.42 16.7429 121.42H14.2472V120.118H16.6037C17.1042 120.118 17.5102 120.032 17.8217 119.859C18.1333 119.684 18.362 119.445 18.5078 119.143C18.6536 118.842 18.7266 118.499 18.7266 118.114C18.7266 117.73 18.6536 117.388 18.5078 117.09C18.362 116.792 18.1316 116.558 17.8168 116.389C17.5052 116.22 17.0942 116.136 16.5838 116.136H14.6548V125H13.1186ZM25.0753 125.154C24.3594 125.154 23.7346 124.99 23.201 124.662C22.6674 124.334 22.2531 123.875 21.9581 123.285C21.6631 122.695 21.5156 122.005 21.5156 121.217C21.5156 120.424 21.6631 119.732 21.9581 119.138C22.2531 118.545 22.6674 118.085 23.201 117.756C23.7346 117.428 24.3594 117.264 25.0753 117.264C25.7912 117.264 26.416 117.428 26.9496 117.756C27.4832 118.085 27.8975 118.545 28.1925 119.138C28.4875 119.732 28.6349 120.424 28.6349 121.217C28.6349 122.005 28.4875 122.695 28.1925 123.285C27.8975 123.875 27.4832 124.334 26.9496 124.662C26.416 124.99 25.7912 125.154 25.0753 125.154ZM25.0803 123.906C25.5443 123.906 25.9287 123.784 26.2337 123.538C26.5386 123.293 26.764 122.967 26.9098 122.559C27.0589 122.151 27.1335 121.702 27.1335 121.212C27.1335 120.724 27.0589 120.277 26.9098 119.869C26.764 119.458 26.5386 119.129 26.2337 118.88C25.9287 118.631 25.5443 118.507 25.0803 118.507C24.6129 118.507 24.2251 118.631 23.9169 118.88C23.612 119.129 23.3849 119.458 23.2358 119.869C23.09 120.277 23.017 120.724 23.017 121.212C23.017 121.702 23.09 122.151 23.2358 122.559C23.3849 122.967 23.612 123.293 23.9169 123.538C24.2251 123.784 24.6129 123.906 25.0803 123.906ZM30.2942 125V117.364H31.7807V125H30.2942ZM31.0449 116.185C30.7864 116.185 30.5643 116.099 30.3787 115.927C30.1964 115.751 30.1053 115.542 30.1053 115.3C30.1053 115.055 30.1964 114.846 30.3787 114.674C30.5643 114.498 30.7864 114.411 31.0449 114.411C31.3034 114.411 31.5239 114.498 31.7061 114.674C31.8917 114.846 31.9846 115.055 31.9846 115.3C31.9846 115.542 31.8917 115.751 31.7061 115.927C31.5239 116.099 31.3034 116.185 31.0449 116.185ZM35.267 120.466V125H33.7805V117.364H35.2074V118.607H35.3018C35.4775 118.202 35.7526 117.877 36.1271 117.632C36.505 117.387 36.9806 117.264 37.554 117.264C38.0743 117.264 38.5301 117.374 38.9212 117.592C39.3123 117.808 39.6155 118.129 39.831 118.557C40.0464 118.984 40.1541 119.513 40.1541 120.143V125H38.6676V120.322C38.6676 119.768 38.5234 119.336 38.2351 119.024C37.9467 118.709 37.5507 118.552 37.0469 118.552C36.7022 118.552 36.3956 118.626 36.1271 118.776C35.862 118.925 35.6515 119.143 35.4957 119.432C35.3433 119.717 35.267 120.062 35.267 120.466ZM45.7124 117.364V118.557H41.5412V117.364H45.7124ZM42.6598 115.534H44.1463V122.758C44.1463 123.046 44.1894 123.263 44.2756 123.409C44.3617 123.552 44.4728 123.649 44.6087 123.702C44.7479 123.752 44.8987 123.777 45.0611 123.777C45.1804 123.777 45.2848 123.769 45.3743 123.752C45.4638 123.736 45.5334 123.722 45.5831 123.712L45.8516 124.94C45.7654 124.973 45.6428 125.007 45.4837 125.04C45.3246 125.076 45.1257 125.096 44.8871 125.099C44.496 125.106 44.1314 125.036 43.7933 124.891C43.4553 124.745 43.1818 124.519 42.973 124.214C42.7642 123.91 42.6598 123.527 42.6598 123.066V115.534ZM59.6378 118.129H58.0866C58.027 117.798 57.916 117.506 57.7536 117.254C57.5911 117.002 57.3923 116.789 57.157 116.613C56.9216 116.437 56.6581 116.305 56.3665 116.215C56.0781 116.126 55.7715 116.081 55.4467 116.081C54.8601 116.081 54.3348 116.228 53.8707 116.523C53.41 116.818 53.0455 117.251 52.777 117.821C52.5118 118.391 52.3793 119.087 52.3793 119.909C52.3793 120.738 52.5118 121.437 52.777 122.007C53.0455 122.577 53.4117 123.008 53.8757 123.3C54.3397 123.591 54.8617 123.737 55.4418 123.737C55.7633 123.737 56.0682 123.694 56.3565 123.608C56.6482 123.518 56.9117 123.388 57.147 123.215C57.3823 123.043 57.5812 122.832 57.7436 122.584C57.9093 122.332 58.0237 122.044 58.0866 121.719L59.6378 121.724C59.5549 122.224 59.3942 122.685 59.1555 123.106C58.9202 123.523 58.617 123.885 58.2457 124.19C57.8778 124.491 57.4569 124.725 56.983 124.891C56.509 125.056 55.992 125.139 55.4318 125.139C54.5502 125.139 53.7647 124.93 53.0753 124.513C52.3859 124.092 51.8423 123.49 51.4446 122.708C51.0502 121.926 50.853 120.993 50.853 119.909C50.853 118.822 51.0518 117.889 51.4496 117.11C51.8473 116.328 52.3909 115.728 53.0803 115.31C53.7696 114.889 54.5535 114.679 55.4318 114.679C55.9721 114.679 56.4759 114.757 56.9432 114.913C57.4138 115.065 57.8364 115.29 58.2109 115.589C58.5855 115.884 58.8954 116.245 59.1406 116.673C59.3859 117.097 59.5516 117.582 59.6378 118.129ZM64.5733 125.154C63.8574 125.154 63.2327 124.99 62.699 124.662C62.1654 124.334 61.7511 123.875 61.4561 123.285C61.1612 122.695 61.0137 122.005 61.0137 121.217C61.0137 120.424 61.1612 119.732 61.4561 119.138C61.7511 118.545 62.1654 118.085 62.699 117.756C63.2327 117.428 63.8574 117.264 64.5733 117.264C65.2892 117.264 65.914 117.428 66.4476 117.756C66.9812 118.085 67.3955 118.545 67.6905 119.138C67.9855 119.732 68.133 120.424 68.133 121.217C68.133 122.005 67.9855 122.695 67.6905 123.285C67.3955 123.875 66.9812 124.334 66.4476 124.662C65.914 124.99 65.2892 125.154 64.5733 125.154ZM64.5783 123.906C65.0423 123.906 65.4268 123.784 65.7317 123.538C66.0366 123.293 66.262 122.967 66.4078 122.559C66.557 122.151 66.6316 121.702 66.6316 121.212C66.6316 120.724 66.557 120.277 66.4078 119.869C66.262 119.458 66.0366 119.129 65.7317 118.88C65.4268 118.631 65.0423 118.507 64.5783 118.507C64.111 118.507 63.7232 118.631 63.415 118.88C63.11 119.129 62.883 119.458 62.7338 119.869C62.588 120.277 62.5151 120.724 62.5151 121.212C62.5151 121.702 62.588 122.151 62.7338 122.559C62.883 122.967 63.11 123.293 63.415 123.538C63.7232 123.784 64.111 123.906 64.5783 123.906ZM73.0089 125.154C72.293 125.154 71.6682 124.99 71.1346 124.662C70.601 124.334 70.1867 123.875 69.8917 123.285C69.5967 122.695 69.4492 122.005 69.4492 121.217C69.4492 120.424 69.5967 119.732 69.8917 119.138C70.1867 118.545 70.601 118.085 71.1346 117.756C71.6682 117.428 72.293 117.264 73.0089 117.264C73.7248 117.264 74.3496 117.428 74.8832 117.756C75.4168 118.085 75.8311 118.545 76.1261 119.138C76.421 119.732 76.5685 120.424 76.5685 121.217C76.5685 122.005 76.421 122.695 76.1261 123.285C75.8311 123.875 75.4168 124.334 74.8832 124.662C74.3496 124.99 73.7248 125.154 73.0089 125.154ZM73.0138 123.906C73.4779 123.906 73.8623 123.784 74.1673 123.538C74.4722 123.293 74.6976 122.967 74.8434 122.559C74.9925 122.151 75.0671 121.702 75.0671 121.212C75.0671 120.724 74.9925 120.277 74.8434 119.869C74.6976 119.458 74.4722 119.129 74.1673 118.88C73.8623 118.631 73.4779 118.507 73.0138 118.507C72.5465 118.507 72.1587 118.631 71.8505 118.88C71.5456 119.129 71.3185 119.458 71.1694 119.869C71.0236 120.277 70.9506 120.724 70.9506 121.212C70.9506 121.702 71.0236 122.151 71.1694 122.559C71.3185 122.967 71.5456 123.293 71.8505 123.538C72.1587 123.784 72.5465 123.906 73.0138 123.906ZM78.2278 125V117.364H79.6646V118.577H79.7441C79.8833 118.166 80.1286 117.843 80.4799 117.607C80.8346 117.369 81.2356 117.249 81.6831 117.249C81.7759 117.249 81.8852 117.253 82.0112 117.259C82.1404 117.266 82.2415 117.274 82.3145 117.284V118.706C82.2548 118.689 82.1487 118.671 81.9963 118.651C81.8438 118.628 81.6913 118.616 81.5389 118.616C81.1876 118.616 80.8743 118.691 80.5993 118.84C80.3275 118.986 80.112 119.19 79.9529 119.452C79.7939 119.71 79.7143 120.005 79.7143 120.337V125H78.2278ZM86.1861 125.149C85.5696 125.149 85.0194 124.992 84.5355 124.677C84.0549 124.359 83.6771 123.906 83.402 123.32C83.1302 122.73 82.9943 122.022 82.9943 121.197C82.9943 120.371 83.1319 119.665 83.407 119.079C83.6854 118.492 84.0665 118.043 84.5504 117.732C85.0343 117.42 85.5829 117.264 86.196 117.264C86.67 117.264 87.0511 117.344 87.3395 117.503C87.6312 117.659 87.8565 117.841 88.0156 118.05C88.178 118.259 88.304 118.442 88.3935 118.602H88.483V114.818H89.9695V125H88.5178V123.812H88.3935C88.304 123.974 88.1747 124.16 88.0057 124.369C87.84 124.577 87.6113 124.76 87.3196 124.915C87.0279 125.071 86.6501 125.149 86.1861 125.149ZM86.5142 123.881C86.9418 123.881 87.303 123.769 87.598 123.543C87.8963 123.315 88.1217 122.998 88.2741 122.594C88.4299 122.189 88.5078 121.719 88.5078 121.182C88.5078 120.652 88.4316 120.187 88.2791 119.79C88.1267 119.392 87.9029 119.082 87.608 118.86C87.313 118.638 86.9484 118.527 86.5142 118.527C86.0668 118.527 85.6939 118.643 85.3956 118.875C85.0973 119.107 84.8719 119.424 84.7195 119.825C84.5703 120.226 84.4957 120.678 84.4957 121.182C84.4957 121.692 84.572 122.151 84.7244 122.559C84.8769 122.967 85.1023 123.29 85.4006 123.528C85.7022 123.764 86.0734 123.881 86.5142 123.881ZM92.0911 125V117.364H93.5776V125H92.0911ZM92.8418 116.185C92.5833 116.185 92.3612 116.099 92.1756 115.927C91.9933 115.751 91.9022 115.542 91.9022 115.3C91.9022 115.055 91.9933 114.846 92.1756 114.674C92.3612 114.498 92.5833 114.411 92.8418 114.411C93.1003 114.411 93.3207 114.498 93.503 114.674C93.6886 114.846 93.7814 115.055 93.7814 115.3C93.7814 115.542 93.6886 115.751 93.503 115.927C93.3207 116.099 93.1003 116.185 92.8418 116.185ZM97.0639 120.466V125H95.5774V117.364H97.0043V118.607H97.0987C97.2744 118.202 97.5495 117.877 97.924 117.632C98.3018 117.387 98.7775 117.264 99.3509 117.264C99.8712 117.264 100.327 117.374 100.718 117.592C101.109 117.808 101.412 118.129 101.628 118.557C101.843 118.984 101.951 119.513 101.951 120.143V125H100.464V120.322C100.464 119.768 100.32 119.336 100.032 119.024C99.7436 118.709 99.3475 118.552 98.8438 118.552C98.4991 118.552 98.1925 118.626 97.924 118.776C97.6589 118.925 97.4484 119.143 97.2926 119.432C97.1402 119.717 97.0639 120.062 97.0639 120.466ZM106.167 125.169C105.683 125.169 105.246 125.08 104.854 124.901C104.463 124.718 104.153 124.455 103.925 124.11C103.699 123.765 103.587 123.343 103.587 122.842C103.587 122.411 103.67 122.057 103.835 121.778C104.001 121.5 104.225 121.28 104.506 121.117C104.788 120.955 105.103 120.832 105.451 120.749C105.799 120.666 106.154 120.603 106.515 120.56C106.972 120.507 107.344 120.464 107.629 120.431C107.914 120.395 108.121 120.337 108.25 120.257C108.379 120.178 108.444 120.048 108.444 119.869V119.835C108.444 119.4 108.321 119.064 108.076 118.825C107.834 118.587 107.473 118.467 106.992 118.467C106.492 118.467 106.097 118.578 105.809 118.8C105.524 119.019 105.327 119.263 105.217 119.531L103.82 119.213C103.986 118.749 104.228 118.375 104.546 118.089C104.868 117.801 105.237 117.592 105.655 117.463C106.072 117.33 106.512 117.264 106.972 117.264C107.277 117.264 107.6 117.301 107.942 117.374C108.286 117.443 108.608 117.572 108.906 117.761C109.208 117.95 109.455 118.22 109.647 118.572C109.839 118.92 109.935 119.372 109.935 119.929V125H108.484V123.956H108.424C108.328 124.148 108.184 124.337 107.991 124.523C107.799 124.708 107.552 124.862 107.251 124.985C106.949 125.108 106.588 125.169 106.167 125.169ZM106.49 123.976C106.901 123.976 107.252 123.895 107.544 123.732C107.839 123.57 108.063 123.358 108.215 123.096C108.371 122.831 108.449 122.547 108.449 122.246V121.261C108.396 121.314 108.293 121.364 108.141 121.411C107.991 121.454 107.821 121.492 107.629 121.525C107.436 121.555 107.249 121.583 107.067 121.609C106.884 121.633 106.732 121.652 106.609 121.669C106.321 121.705 106.058 121.767 105.819 121.853C105.584 121.939 105.395 122.063 105.252 122.226C105.113 122.385 105.043 122.597 105.043 122.862C105.043 123.23 105.179 123.509 105.451 123.697C105.723 123.883 106.069 123.976 106.49 123.976ZM115.48 117.364V118.557H111.309V117.364H115.48ZM112.427 115.534H113.914V122.758C113.914 123.046 113.957 123.263 114.043 123.409C114.129 123.552 114.24 123.649 114.376 123.702C114.515 123.752 114.666 123.777 114.829 123.777C114.948 123.777 115.052 123.769 115.142 123.752C115.231 123.736 115.301 123.722 115.351 123.712L115.619 124.94C115.533 124.973 115.41 125.007 115.251 125.04C115.092 125.076 114.893 125.096 114.655 125.099C114.264 125.106 113.899 125.036 113.561 124.891C113.223 124.745 112.949 124.519 112.741 124.214C112.532 123.91 112.427 123.527 112.427 123.066V115.534ZM120.333 125.154C119.581 125.154 118.933 124.993 118.39 124.672C117.849 124.347 117.432 123.891 117.137 123.305C116.845 122.715 116.699 122.024 116.699 121.232C116.699 120.449 116.845 119.76 117.137 119.163C117.432 118.567 117.843 118.101 118.37 117.766C118.9 117.432 119.52 117.264 120.229 117.264C120.66 117.264 121.078 117.335 121.482 117.478C121.886 117.621 122.249 117.844 122.571 118.149C122.892 118.454 123.146 118.85 123.331 119.337C123.517 119.821 123.61 120.41 123.61 121.102V121.629H117.539V120.516H122.153C122.153 120.125 122.074 119.778 121.914 119.477C121.755 119.172 121.532 118.931 121.243 118.756C120.958 118.58 120.623 118.492 120.239 118.492C119.821 118.492 119.457 118.595 119.145 118.8C118.837 119.003 118.598 119.268 118.429 119.596C118.264 119.921 118.181 120.274 118.181 120.655V121.525C118.181 122.035 118.27 122.469 118.449 122.827C118.632 123.185 118.885 123.459 119.21 123.648C119.535 123.833 119.914 123.926 120.348 123.926C120.63 123.926 120.887 123.886 121.119 123.807C121.351 123.724 121.551 123.601 121.721 123.439C121.89 123.277 122.019 123.076 122.108 122.837L123.515 123.091C123.403 123.505 123.2 123.868 122.909 124.18C122.62 124.488 122.257 124.728 121.82 124.901C121.386 125.07 120.89 125.154 120.333 125.154ZM130.981 119.228L129.634 119.467C129.578 119.294 129.488 119.13 129.366 118.974C129.246 118.819 129.084 118.691 128.878 118.592C128.673 118.492 128.416 118.442 128.108 118.442C127.687 118.442 127.336 118.537 127.054 118.726C126.772 118.911 126.631 119.152 126.631 119.447C126.631 119.702 126.726 119.907 126.915 120.063C127.104 120.219 127.408 120.347 127.829 120.446L129.042 120.724C129.745 120.887 130.269 121.137 130.613 121.475C130.958 121.813 131.131 122.252 131.131 122.793C131.131 123.25 130.998 123.658 130.733 124.016C130.471 124.37 130.105 124.649 129.634 124.851C129.167 125.053 128.625 125.154 128.008 125.154C127.153 125.154 126.456 124.972 125.915 124.607C125.375 124.239 125.044 123.717 124.921 123.041L126.358 122.822C126.447 123.197 126.631 123.48 126.91 123.673C127.188 123.862 127.551 123.956 127.998 123.956C128.486 123.956 128.875 123.855 129.167 123.653C129.458 123.447 129.604 123.197 129.604 122.902C129.604 122.663 129.515 122.463 129.336 122.3C129.16 122.138 128.89 122.015 128.525 121.933L127.233 121.649C126.52 121.487 125.993 121.228 125.652 120.874C125.314 120.519 125.145 120.07 125.145 119.526C125.145 119.076 125.271 118.681 125.523 118.343C125.774 118.005 126.122 117.741 126.567 117.553C127.011 117.36 127.519 117.264 128.093 117.264C128.918 117.264 129.568 117.443 130.042 117.801C130.516 118.156 130.829 118.631 130.981 119.228Z" fill="#E0E0E0"/>
<path d="M13.5682 140.273L15.8182 143.903H15.8864L18.1364 140.273H19.3807L16.6364 144.636L19.3807 149H18.1364L15.8864 145.438H15.8182L13.5682 149H12.3239L15.1364 144.636L12.3239 140.273H13.5682ZM23.5494 144.168V145.105H19.7312V144.168H23.5494ZM25.8132 149H24.7053L27.9098 140.273H29.0007L32.2053 149H31.0973L28.4893 141.653H28.4212L25.8132 149ZM26.2223 145.591H30.6882V146.528H26.2223V145.591ZM34.1783 142.455L35.7464 145.131L37.3146 142.455H38.4737L36.3601 145.727L38.4737 149H37.3146L35.7464 146.46L34.1783 149H33.0192L35.0987 145.727L33.0192 142.455H34.1783ZM39.9087 149V142.455H40.9144V149H39.9087ZM40.4201 141.364C40.2241 141.364 40.055 141.297 39.913 141.163C39.7738 141.03 39.7042 140.869 39.7042 140.682C39.7042 140.494 39.7738 140.334 39.913 140.2C40.055 140.067 40.2241 140 40.4201 140C40.6161 140 40.7837 140.067 40.9229 140.2C41.065 140.334 41.136 140.494 41.136 140.682C41.136 140.869 41.065 141.03 40.9229 141.163C40.7837 141.297 40.6161 141.364 40.4201 141.364ZM47.3928 143.92L46.4893 144.176C46.4325 144.026 46.3487 143.879 46.2379 143.737C46.13 143.592 45.9822 143.473 45.7947 143.379C45.6072 143.286 45.3672 143.239 45.0746 143.239C44.674 143.239 44.3402 143.331 44.0732 143.516C43.8089 143.697 43.6768 143.929 43.6768 144.21C43.6768 144.46 43.7678 144.658 43.9496 144.803C44.1314 144.947 44.4155 145.068 44.8018 145.165L45.7734 145.403C46.3587 145.545 46.7947 145.763 47.0817 146.055C47.3686 146.345 47.5121 146.719 47.5121 147.176C47.5121 147.551 47.4041 147.886 47.1882 148.182C46.9751 148.477 46.6768 148.71 46.2933 148.881C45.9098 149.051 45.4638 149.136 44.9553 149.136C44.2876 149.136 43.7351 148.991 43.2976 148.702C42.8601 148.412 42.5831 147.989 42.4666 147.432L43.4212 147.193C43.5121 147.545 43.6839 147.81 43.9368 147.986C44.1925 148.162 44.5263 148.25 44.9382 148.25C45.407 148.25 45.7791 148.151 46.0547 147.952C46.3331 147.75 46.4723 147.509 46.4723 147.227C46.4723 147 46.3928 146.81 46.2337 146.656C46.0746 146.5 45.8303 146.384 45.5007 146.307L44.4098 146.051C43.8104 145.909 43.37 145.689 43.0888 145.391C42.8104 145.089 42.6712 144.713 42.6712 144.261C42.6712 143.892 42.7749 143.565 42.9822 143.281C43.1925 142.997 43.478 142.774 43.8388 142.612C44.2024 142.45 44.6143 142.369 45.0746 142.369C45.7223 142.369 46.2308 142.511 46.6001 142.795C46.9723 143.08 47.2365 143.455 47.3928 143.92Z" fill="#E0E0E0"/>
<g filter="url(#filter0_i_2198_685)">
<rect x="12" y="157" width="91" height="18" rx="4" fill="#161616"/>
<rect x="12" y="157" width="91" height="18" rx="4" stroke="#505050"/>
<path d="M23.7202 170.119C23.1861 170.119 22.706 170.017 22.2798 169.812C21.8565 169.605 21.5185 169.321 21.2656 168.96C21.0128 168.599 20.8778 168.188 20.8608 167.724H22.1392C22.1705 168.099 22.3366 168.408 22.6378 168.649C22.9389 168.891 23.2997 169.011 23.7202 169.011C24.0554 169.011 24.3523 168.935 24.6108 168.781C24.8722 168.625 25.0767 168.411 25.2244 168.138C25.375 167.865 25.4503 167.554 25.4503 167.205C25.4503 166.849 25.3736 166.533 25.2202 166.254C25.0668 165.976 24.8551 165.757 24.5852 165.598C24.3182 165.439 24.0114 165.358 23.6648 165.355C23.4006 165.355 23.1349 165.401 22.8679 165.491C22.6009 165.582 22.3849 165.702 22.2202 165.849L21.0142 165.67L21.5043 161.273H26.3026V162.402H22.5994L22.3224 164.844H22.3736C22.544 164.679 22.7699 164.541 23.0511 164.43C23.3352 164.32 23.6392 164.264 23.9631 164.264C24.4943 164.264 24.9673 164.391 25.3821 164.643C25.7997 164.896 26.1278 165.241 26.3665 165.679C26.608 166.114 26.7273 166.614 26.7244 167.179C26.7273 167.744 26.5994 168.249 26.3409 168.692C26.0852 169.135 25.7301 169.484 25.2756 169.74C24.8239 169.993 24.3054 170.119 23.7202 170.119ZM28.821 170.081C28.5881 170.081 28.3878 169.999 28.2202 169.834C28.0526 169.666 27.9688 169.464 27.9688 169.229C27.9688 168.996 28.0526 168.797 28.2202 168.632C28.3878 168.464 28.5881 168.381 28.821 168.381C29.054 168.381 29.2543 168.464 29.4219 168.632C29.5895 168.797 29.6733 168.996 29.6733 169.229C29.6733 169.385 29.6335 169.528 29.554 169.659C29.4773 169.787 29.375 169.889 29.2472 169.966C29.1193 170.043 28.9773 170.081 28.821 170.081ZM34.0849 170.145C33.4116 170.142 32.8363 169.964 32.359 169.612C31.8817 169.26 31.5167 168.747 31.2638 168.074C31.011 167.401 30.8846 166.589 30.8846 165.641C30.8846 164.695 31.011 163.886 31.2638 163.216C31.5195 162.545 31.886 162.034 32.3633 161.682C32.8434 161.33 33.4173 161.153 34.0849 161.153C34.7525 161.153 35.3249 161.331 35.8022 161.686C36.2795 162.038 36.6445 162.55 36.8974 163.22C37.1531 163.888 37.2809 164.695 37.2809 165.641C37.2809 166.592 37.1545 167.405 36.9016 168.078C36.6488 168.749 36.2837 169.261 35.8065 169.616C35.3292 169.969 34.7553 170.145 34.0849 170.145ZM34.0849 169.007C34.6758 169.007 35.1374 168.719 35.4698 168.142C35.805 167.565 35.9727 166.732 35.9727 165.641C35.9727 164.916 35.896 164.304 35.7425 163.804C35.592 163.301 35.3746 162.92 35.0906 162.662C34.8093 162.401 34.4741 162.27 34.0849 162.27C33.4968 162.27 33.0352 162.56 32.6999 163.139C32.3647 163.719 32.1957 164.553 32.1928 165.641C32.1928 166.368 32.2681 166.983 32.4187 167.486C32.5721 167.986 32.7894 168.365 33.0707 168.624C33.3519 168.879 33.69 169.007 34.0849 169.007Z" fill="#E0E0E0"/>
</g>
<rect x="111" y="156.93" width="18" height="18" rx="4" fill="#2E2E2E"/>
<g clip-path="url(#clip1_2198_685)">
<path fill-rule="evenodd" clip-rule="evenodd" d="M120.48 162.959L119.791 163.648C119.656 163.778 119.476 163.85 119.288 163.848C119.101 163.847 118.922 163.772 118.789 163.639C118.657 163.507 118.582 163.328 118.58 163.14C118.579 162.953 118.651 162.773 118.781 162.638L119.469 161.949C120.077 161.341 120.901 161 121.76 161C122.62 161 123.444 161.341 124.052 161.949C124.659 162.556 125 163.38 125 164.24C125 165.099 124.659 165.923 124.052 166.531L123.362 167.219C123.296 167.287 123.218 167.342 123.13 167.379C123.043 167.417 122.949 167.436 122.855 167.437C122.76 167.438 122.666 167.42 122.578 167.384C122.49 167.348 122.41 167.295 122.343 167.228C122.276 167.161 122.223 167.081 122.187 166.993C122.151 166.906 122.133 166.812 122.134 166.717C122.135 166.622 122.155 166.528 122.192 166.441C122.23 166.354 122.284 166.275 122.352 166.209L123.041 165.52C123.365 165.177 123.542 164.722 123.535 164.25C123.529 163.779 123.338 163.328 123.005 162.995C122.672 162.662 122.221 162.471 121.75 162.465C121.278 162.458 120.823 162.635 120.48 162.959ZM117.648 164.781C117.782 164.915 117.857 165.096 117.857 165.286C117.857 165.475 117.782 165.657 117.648 165.791L116.959 166.48C116.636 166.823 116.458 167.278 116.465 167.75C116.472 168.221 116.662 168.671 116.995 169.005C117.329 169.338 117.779 169.528 118.25 169.535C118.722 169.542 119.177 169.364 119.52 169.041L120.209 168.352C120.344 168.222 120.525 168.15 120.712 168.152C120.899 168.153 121.078 168.228 121.211 168.361C121.343 168.493 121.418 168.672 121.42 168.86C121.421 169.047 121.349 169.227 121.219 169.362L120.531 170.051C119.921 170.647 119.1 170.98 118.247 170.975C117.394 170.971 116.577 170.63 115.974 170.026C115.37 169.423 115.029 168.606 115.024 167.753C115.02 166.9 115.352 166.079 115.949 165.469L116.638 164.781C116.772 164.647 116.954 164.572 117.143 164.572C117.332 164.572 117.514 164.647 117.648 164.781ZM121.577 165.434C121.707 165.299 121.779 165.118 121.777 164.931C121.775 164.744 121.7 164.565 121.568 164.432C121.435 164.3 121.256 164.225 121.069 164.223C120.882 164.221 120.701 164.293 120.567 164.424L118.424 166.566C118.294 166.701 118.222 166.882 118.223 167.069C118.225 167.256 118.3 167.435 118.432 167.568C118.565 167.7 118.744 167.775 118.931 167.777C119.119 167.778 119.299 167.706 119.434 167.576L121.577 165.434Z" fill="#A4A4A4"/>
</g>
<path d="M137.307 140.273H138.517L140.938 144.347H141.04L143.46 140.273H144.67L141.517 145.403V149H140.46V145.403L137.307 140.273ZM148.702 144.168V145.105H144.884V144.168H148.702ZM150.966 149H149.858L153.062 140.273H154.153L157.358 149H156.25L153.642 141.653H153.574L150.966 149ZM151.375 145.591H155.841V146.528H151.375V145.591ZM159.331 142.455L160.899 145.131L162.467 142.455H163.626L161.512 145.727L163.626 149H162.467L160.899 146.46L159.331 149H158.172L160.251 145.727L158.172 142.455H159.331ZM165.061 149V142.455H166.067V149H165.061ZM165.572 141.364C165.376 141.364 165.207 141.297 165.065 141.163C164.926 141.03 164.857 140.869 164.857 140.682C164.857 140.494 164.926 140.334 165.065 140.2C165.207 140.067 165.376 140 165.572 140C165.768 140 165.936 140.067 166.075 140.2C166.217 140.334 166.288 140.494 166.288 140.682C166.288 140.869 166.217 141.03 166.075 141.163C165.936 141.297 165.768 141.364 165.572 141.364ZM172.545 143.92L171.642 144.176C171.585 144.026 171.501 143.879 171.39 143.737C171.282 143.592 171.135 143.473 170.947 143.379C170.76 143.286 170.52 143.239 170.227 143.239C169.826 143.239 169.493 143.331 169.225 143.516C168.961 143.697 168.829 143.929 168.829 144.21C168.829 144.46 168.92 144.658 169.102 144.803C169.284 144.947 169.568 145.068 169.954 145.165L170.926 145.403C171.511 145.545 171.947 145.763 172.234 146.055C172.521 146.345 172.664 146.719 172.664 147.176C172.664 147.551 172.556 147.886 172.341 148.182C172.127 148.477 171.829 148.71 171.446 148.881C171.062 149.051 170.616 149.136 170.108 149.136C169.44 149.136 168.887 148.991 168.45 148.702C168.012 148.412 167.735 147.989 167.619 147.432L168.574 147.193C168.664 147.545 168.836 147.81 169.089 147.986C169.345 148.162 169.679 148.25 170.091 148.25C170.559 148.25 170.931 148.151 171.207 147.952C171.485 147.75 171.625 147.509 171.625 147.227C171.625 147 171.545 146.81 171.386 146.656C171.227 146.5 170.983 146.384 170.653 146.307L169.562 146.051C168.963 145.909 168.522 145.689 168.241 145.391C167.963 145.089 167.824 144.713 167.824 144.261C167.824 143.892 167.927 143.565 168.135 143.281C168.345 142.997 168.63 142.774 168.991 142.612C169.355 142.45 169.767 142.369 170.227 142.369C170.875 142.369 171.383 142.511 171.752 142.795C172.125 143.08 172.389 143.455 172.545 143.92Z" fill="#E0E0E0"/>
<g filter="url(#filter1_i_2198_685)">
<rect x="137" y="157" width="91" height="18" rx="4" fill="#161616"/>
<rect x="137" y="157" width="91" height="18" rx="4" stroke="#505050"/>
<path d="M148.878 170.119C148.293 170.119 147.77 170.018 147.31 169.817C146.852 169.615 146.49 169.335 146.223 168.977C145.959 168.616 145.817 168.199 145.797 167.724H147.135C147.152 167.983 147.239 168.207 147.395 168.398C147.554 168.585 147.761 168.73 148.017 168.832C148.273 168.935 148.557 168.986 148.869 168.986C149.213 168.986 149.517 168.926 149.781 168.807C150.048 168.687 150.257 168.521 150.408 168.308C150.558 168.092 150.634 167.844 150.634 167.562C150.634 167.27 150.558 167.013 150.408 166.791C150.26 166.567 150.043 166.391 149.756 166.263C149.472 166.135 149.128 166.071 148.724 166.071H147.987V164.997H148.724C149.048 164.997 149.332 164.939 149.577 164.822C149.824 164.706 150.017 164.544 150.156 164.337C150.295 164.126 150.365 163.881 150.365 163.599C150.365 163.33 150.304 163.095 150.182 162.896C150.063 162.695 149.892 162.537 149.67 162.423C149.452 162.31 149.193 162.253 148.895 162.253C148.611 162.253 148.345 162.305 148.098 162.411C147.854 162.513 147.655 162.661 147.501 162.854C147.348 163.044 147.266 163.273 147.254 163.54H145.98C145.994 163.068 146.134 162.653 146.398 162.295C146.665 161.937 147.017 161.658 147.455 161.456C147.892 161.254 148.378 161.153 148.912 161.153C149.472 161.153 149.955 161.263 150.361 161.482C150.77 161.697 151.085 161.986 151.307 162.347C151.531 162.707 151.642 163.102 151.639 163.531C151.642 164.02 151.506 164.435 151.23 164.776C150.957 165.116 150.594 165.345 150.139 165.462V165.53C150.719 165.618 151.168 165.848 151.486 166.22C151.807 166.592 151.966 167.054 151.963 167.605C151.966 168.085 151.832 168.516 151.562 168.896C151.295 169.277 150.93 169.577 150.467 169.795C150.004 170.011 149.474 170.119 148.878 170.119ZM154.173 170.081C153.94 170.081 153.739 169.999 153.572 169.834C153.404 169.666 153.32 169.464 153.32 169.229C153.32 168.996 153.404 168.797 153.572 168.632C153.739 168.464 153.94 168.381 154.173 168.381C154.406 168.381 154.606 168.464 154.773 168.632C154.941 168.797 155.025 168.996 155.025 169.229C155.025 169.385 154.985 169.528 154.906 169.659C154.829 169.787 154.727 169.889 154.599 169.966C154.471 170.043 154.329 170.081 154.173 170.081ZM159.436 170.145C158.763 170.142 158.188 169.964 157.711 169.612C157.233 169.26 156.868 168.747 156.615 168.074C156.363 167.401 156.236 166.589 156.236 165.641C156.236 164.695 156.363 163.886 156.615 163.216C156.871 162.545 157.238 162.034 157.715 161.682C158.195 161.33 158.769 161.153 159.436 161.153C160.104 161.153 160.676 161.331 161.154 161.686C161.631 162.038 161.996 162.55 162.249 163.22C162.505 163.888 162.632 164.695 162.632 165.641C162.632 166.592 162.506 167.405 162.253 168.078C162 168.749 161.635 169.261 161.158 169.616C160.681 169.969 160.107 170.145 159.436 170.145ZM159.436 169.007C160.027 169.007 160.489 168.719 160.821 168.142C161.157 167.565 161.324 166.732 161.324 165.641C161.324 164.916 161.248 164.304 161.094 163.804C160.944 163.301 160.726 162.92 160.442 162.662C160.161 162.401 159.826 162.27 159.436 162.27C158.848 162.27 158.387 162.56 158.051 163.139C157.716 163.719 157.547 164.553 157.544 165.641C157.544 166.368 157.62 166.983 157.77 167.486C157.924 167.986 158.141 168.365 158.422 168.624C158.703 168.879 159.042 169.007 159.436 169.007Z" fill="#E0E0E0"/>
</g>
<g clip-path="url(#clip2_2198_685)">
<rect x="12" y="187" width="216" height="216" rx="8" fill="#101010"/>
<rect x="13" y="375" width="214" height="5" fill="#51A2FF" fill-opacity="0.01"/>
<rect x="13" y="377" width="214" height="1" fill="#A1A1A1"/>
<rect x="35" y="187.999" width="5" height="214" fill="#51A2FF" fill-opacity="0.01"/>
<rect x="37" y="187.999" width="1" height="214" fill="#A1A1A1"/>
<line x1="63.75" y1="187.999" x2="63.75" y2="401.999" stroke="#727272" stroke-opacity="0.6" stroke-width="0.5"/>
<line x1="88.75" y1="187.999" x2="88.75" y2="401.999" stroke="#727272" stroke-opacity="0.6" stroke-width="0.5"/>
<line x1="113.75" y1="187.999" x2="113.75" y2="401.999" stroke="#727272" stroke-opacity="0.6" stroke-width="0.5"/>
<line x1="138.75" y1="187.999" x2="138.75" y2="401.999" stroke="#727272" stroke-opacity="0.6" stroke-width="0.5"/>
<line x1="163.75" y1="187.999" x2="163.75" y2="401.999" stroke="#727272" stroke-opacity="0.6" stroke-width="0.5"/>
<line x1="188.75" y1="187.999" x2="188.75" y2="401.999" stroke="#727272" stroke-opacity="0.6" stroke-width="0.5"/>
<line x1="213.75" y1="187.999" x2="213.75" y2="401.999" stroke="#727272" stroke-opacity="0.6" stroke-width="0.5"/>
<line x1="227" y1="352.25" x2="13" y2="352.25" stroke="#727272" stroke-opacity="0.6" stroke-width="0.5"/>
<line x1="227" y1="327.25" x2="13" y2="327.25" stroke="#727272" stroke-opacity="0.6" stroke-width="0.5"/>
<line x1="227" y1="302.25" x2="13" y2="302.25" stroke="#727272" stroke-opacity="0.6" stroke-width="0.5"/>
<line x1="227" y1="277.25" x2="13" y2="277.25" stroke="#727272" stroke-opacity="0.6" stroke-width="0.5"/>
<line x1="227" y1="252.25" x2="13" y2="252.25" stroke="#727272" stroke-opacity="0.6" stroke-width="0.5"/>
<line x1="227" y1="227.25" x2="13" y2="227.25" stroke="#727272" stroke-opacity="0.6" stroke-width="0.5"/>
<line x1="227" y1="202.25" x2="13" y2="202.25" stroke="#727272" stroke-opacity="0.6" stroke-width="0.5"/>
<path d="M31.7047 381.322V386H30.9966V382.03H30.9692L29.8499 382.761V382.085L31.0171 381.322H31.7047Z" fill="#71717B"/>
<path d="M28.3597 193.182H29.5501L30.9734 195.756H31.0302L32.4535 193.182H33.6438L31.5273 196.83V199H30.4762V196.83L28.3597 193.182Z" fill="#71717B"/>
<path d="M217.693 381.182L218.974 383.312H219.02L220.306 381.182H221.508L219.716 384.091L221.537 387H220.315L219.02 384.884H218.974L217.679 387H216.463L218.301 384.091L216.485 381.182H217.693Z" fill="#71717B"/>
<circle cx="37.5" cy="377.5" r="1.75" fill="#A1A1A1" stroke="#A1A1A1" stroke-width="0.5"/>
<line x1="13" y1="339.5" x2="95" y2="339.5" stroke="#B8B8B8" stroke-dasharray="4 4"/>
<line x1="101.5" y1="346" x2="101.5" y2="402" stroke="#B8B8B8" stroke-dasharray="4 4"/>
<g filter="url(#filter2_d_2198_685)">
<mask id="path-50-inside-1_2198_685" fill="white">
<path d="M95 340C95 336.686 97.6863 334 101 334C104.314 334 107 336.686 107 340C107 343.314 104.314 346 101 346C97.6863 346 95 343.314 95 340Z"/>
</mask>
<path d="M95 340C95 336.686 97.6863 334 101 334C104.314 334 107 336.686 107 340C107 343.314 104.314 346 101 346C97.6863 346 95 343.314 95 340Z" fill="#155DFC"/>
<path d="M95 340M107 340M107 340M95 340M101 334M107 340M101 346M95 340M101 346V344.928C98.2784 344.928 96.0721 342.722 96.0721 340H95H93.9279C93.9279 343.906 97.0942 347.072 101 347.072V346ZM107 340H105.928C105.928 342.722 103.722 344.928 101 344.928V346V347.072C104.906 347.072 108.072 343.906 108.072 340H107ZM101 334V335.072C103.722 335.072 105.928 337.278 105.928 340H107H108.072C108.072 336.094 104.906 332.928 101 332.928V334ZM101 334V332.928C97.0942 332.928 93.9279 336.094 93.9279 340H95H96.0721C96.0721 337.278 98.2784 335.072 101 335.072V334Z" fill="#51A2FF" mask="url(#path-50-inside-1_2198_685)"/>
</g>
</g>
<rect x="12.5" y="187.5" width="215" height="215" rx="7.5" stroke="#3F3F47"/>
<rect x="12" y="411" width="86" height="18" rx="4" fill="#2E2E2E"/>
<path d="M24.5166 418.638C24.4787 418.302 24.3225 418.041 24.0479 417.857C23.7732 417.67 23.4276 417.576 23.0109 417.576C22.7126 417.576 22.4546 417.623 22.2368 417.718C22.019 417.81 21.8497 417.938 21.729 418.102C21.6106 418.263 21.5514 418.446 21.5514 418.652C21.5514 418.825 21.5916 418.974 21.6721 419.099C21.755 419.225 21.8627 419.33 21.9953 419.415C22.1302 419.498 22.2747 419.568 22.4285 419.625C22.5824 419.679 22.7304 419.724 22.8724 419.76L23.5827 419.945C23.8147 420.001 24.0526 420.078 24.2964 420.175C24.5403 420.272 24.7664 420.4 24.9747 420.559C25.183 420.718 25.3511 420.914 25.479 421.148C25.6092 421.383 25.6743 421.663 25.6743 421.99C25.6743 422.402 25.5677 422.768 25.3547 423.087C25.144 423.407 24.8374 423.659 24.4349 423.844C24.0348 424.028 23.5507 424.121 22.9825 424.121C22.438 424.121 21.9669 424.034 21.5692 423.862C21.1714 423.689 20.8601 423.444 20.6352 423.126C20.4103 422.807 20.286 422.428 20.2623 421.99H21.3632C21.3845 422.253 21.4697 422.472 21.6189 422.647C21.7704 422.82 21.9633 422.949 22.1977 423.034C22.4345 423.117 22.6937 423.158 22.9754 423.158C23.2855 423.158 23.5613 423.11 23.8028 423.013C24.0467 422.913 24.2384 422.776 24.3781 422.601C24.5178 422.423 24.5876 422.216 24.5876 421.979C24.5876 421.764 24.5261 421.588 24.403 421.45C24.2822 421.313 24.1177 421.199 23.9094 421.109C23.7034 421.019 23.4702 420.94 23.2098 420.871L22.3504 420.637C21.768 420.478 21.3064 420.245 20.9655 419.938C20.6269 419.63 20.4577 419.223 20.4577 418.716C20.4577 418.297 20.5713 417.931 20.7986 417.619C21.0258 417.306 21.3336 417.063 21.7219 416.891C22.1101 416.715 22.5481 416.628 23.0358 416.628C23.5282 416.628 23.9626 416.714 24.339 416.887C24.7178 417.06 25.0161 417.298 25.2339 417.601C25.4517 417.902 25.5654 418.247 25.5748 418.638H24.5166ZM27.9621 420.761V424H26.9003V416.727H27.9479V419.433H28.0154C28.1432 419.14 28.3385 418.906 28.6013 418.734C28.8641 418.561 29.2074 418.474 29.6311 418.474C30.0052 418.474 30.3319 418.551 30.6112 418.705C30.893 418.859 31.1108 419.089 31.2646 419.394C31.4209 419.697 31.499 420.076 31.499 420.531V424H30.4372V420.658C30.4372 420.258 30.3343 419.948 30.1283 419.728C29.9223 419.505 29.6359 419.394 29.2689 419.394C29.018 419.394 28.7931 419.447 28.5942 419.554C28.3977 419.661 28.2426 419.817 28.129 420.023C28.0177 420.226 27.9621 420.473 27.9621 420.761ZM35.2135 424.11C34.7021 424.11 34.2559 423.993 33.8747 423.759C33.4936 423.524 33.1977 423.196 32.9869 422.775C32.7762 422.353 32.6709 421.861 32.6709 421.298C32.6709 420.732 32.7762 420.237 32.9869 419.813C33.1977 419.389 33.4936 419.06 33.8747 418.826C34.2559 418.592 34.7021 418.474 35.2135 418.474C35.7249 418.474 36.1711 418.592 36.5523 418.826C36.9334 419.06 37.2294 419.389 37.4401 419.813C37.6508 420.237 37.7561 420.732 37.7561 421.298C37.7561 421.861 37.6508 422.353 37.4401 422.775C37.2294 423.196 36.9334 423.524 36.5523 423.759C36.1711 423.993 35.7249 424.11 35.2135 424.11ZM35.2171 423.219C35.5485 423.219 35.8231 423.131 36.0409 422.956C36.2587 422.781 36.4197 422.548 36.5239 422.256C36.6304 421.965 36.6837 421.644 36.6837 421.294C36.6837 420.946 36.6304 420.626 36.5239 420.335C36.4197 420.042 36.2587 419.806 36.0409 419.629C35.8231 419.451 35.5485 419.362 35.2171 419.362C34.8833 419.362 34.6063 419.451 34.3861 419.629C34.1683 419.806 34.0061 420.042 33.8996 420.335C33.7954 420.626 33.7433 420.946 33.7433 421.294C33.7433 421.644 33.7954 421.965 33.8996 422.256C34.0061 422.548 34.1683 422.781 34.3861 422.956C34.6063 423.131 34.8833 423.219 35.2171 423.219ZM39.9578 424L38.3527 418.545H39.45L40.5189 422.551H40.5722L41.6446 418.545H42.7419L43.8073 422.533H43.8605L44.9223 418.545H46.0196L44.4181 424H43.335L42.227 420.062H42.1453L41.0374 424H39.9578ZM49.759 416.727H51.0906L53.406 422.381H53.4912L55.8066 416.727H57.1382V424H56.0942V418.737H56.0267L53.8818 423.989H53.0154L50.8705 418.734H50.803V424H49.759V416.727ZM58.6483 424V418.545H59.7101V424H58.6483ZM59.1846 417.704C58.9999 417.704 58.8413 417.642 58.7087 417.519C58.5785 417.394 58.5134 417.245 58.5134 417.072C58.5134 416.897 58.5785 416.747 58.7087 416.624C58.8413 416.499 58.9999 416.436 59.1846 416.436C59.3692 416.436 59.5267 416.499 59.6569 416.624C59.7894 416.747 59.8557 416.897 59.8557 417.072C59.8557 417.245 59.7894 417.394 59.6569 417.519C59.5267 417.642 59.3692 417.704 59.1846 417.704ZM62.2004 420.761V424H61.1386V418.545H62.1578V419.433H62.2252C62.3507 419.144 62.5472 418.912 62.8147 418.737C63.0846 418.562 63.4243 418.474 63.8339 418.474C64.2056 418.474 64.5311 418.553 64.8105 418.709C65.0898 418.863 65.3064 419.092 65.4603 419.398C65.6142 419.703 65.6911 420.081 65.6911 420.531V424H64.6294V420.658C64.6294 420.263 64.5264 419.954 64.3204 419.732C64.1144 419.507 63.8315 419.394 63.4717 419.394C63.2255 419.394 63.0065 419.447 62.8147 419.554C62.6253 419.661 62.475 419.817 62.3637 420.023C62.2548 420.226 62.2004 420.473 62.2004 420.761ZM69.885 416.386L67.5413 425.094H66.5931L68.9369 416.386H69.885ZM70.8722 416.727H72.2039L74.5193 422.381H74.6045L76.9198 416.727H78.2515V424H77.2075V418.737H77.14L74.9951 423.989H74.1286L71.9838 418.734H71.9163V424H70.8722V416.727ZM81.349 424.121C81.0033 424.121 80.6908 424.057 80.4115 423.929C80.1321 423.799 79.9108 423.611 79.7474 423.364C79.5864 423.118 79.5059 422.816 79.5059 422.459C79.5059 422.151 79.5651 421.898 79.6835 421.699C79.8019 421.5 79.9617 421.343 80.1629 421.227C80.3641 421.111 80.589 421.023 80.8376 420.964C81.0862 420.905 81.3395 420.86 81.5976 420.829C81.9243 420.791 82.1894 420.76 82.393 420.737C82.5966 420.71 82.7446 420.669 82.8369 420.612C82.9292 420.555 82.9754 420.463 82.9754 420.335V420.31C82.9754 420 82.8878 419.76 82.7126 419.589C82.5398 419.419 82.2818 419.334 81.9385 419.334C81.581 419.334 81.2993 419.413 81.0933 419.572C80.8897 419.728 80.7488 419.902 80.6707 420.094L79.6729 419.866C79.7912 419.535 79.964 419.268 80.1913 419.064C80.421 418.858 80.6849 418.709 80.9832 418.616C81.2815 418.522 81.5952 418.474 81.9243 418.474C82.1421 418.474 82.3729 418.5 82.6167 418.553C82.863 418.602 83.0926 418.695 83.3057 418.83C83.5211 418.964 83.6975 419.157 83.8348 419.408C83.9721 419.657 84.0407 419.98 84.0407 420.378V424H83.0038V423.254H82.9612C82.8925 423.392 82.7896 423.527 82.6523 423.659C82.5149 423.792 82.3386 423.902 82.1231 423.989C81.9077 424.077 81.6497 424.121 81.349 424.121ZM81.5798 423.268C81.8734 423.268 82.1243 423.21 82.3327 423.094C82.5434 422.978 82.7032 422.827 82.8121 422.64C82.9233 422.451 82.979 422.248 82.979 422.033V421.33C82.9411 421.367 82.8677 421.403 82.7588 421.436C82.6523 421.467 82.5303 421.494 82.393 421.518C82.2557 421.539 82.122 421.559 81.9917 421.578C81.8615 421.595 81.7526 421.609 81.665 421.621C81.4591 421.647 81.2709 421.691 81.1004 421.752C80.9323 421.814 80.7974 421.902 80.6956 422.018C80.5961 422.132 80.5464 422.284 80.5464 422.473C80.5464 422.736 80.6435 422.935 80.8376 423.07C81.0318 423.202 81.2791 423.268 81.5798 423.268ZM86.2931 418.545L87.4969 420.669L88.7114 418.545H89.8726L88.1716 421.273L89.8868 424H88.7256L87.4969 421.962L86.2718 424H85.107L86.8044 421.273L85.1283 418.545H86.2931Z" fill="#E0E0E0"/>
<rect x="174" y="411" width="54" height="18" rx="4" fill="#2E2E2E"/>
<path d="M182.79 424V416.727H185.383C185.948 416.727 186.417 416.83 186.789 417.036C187.16 417.242 187.439 417.524 187.623 417.881C187.808 418.237 187.9 418.637 187.9 419.082C187.9 419.529 187.807 419.932 187.62 420.289C187.435 420.644 187.156 420.926 186.782 421.134C186.41 421.34 185.942 421.443 185.379 421.443H183.596V420.513H185.28C185.637 420.513 185.927 420.451 186.15 420.328C186.372 420.203 186.535 420.032 186.64 419.817C186.744 419.601 186.796 419.356 186.796 419.082C186.796 418.807 186.744 418.563 186.64 418.35C186.535 418.137 186.371 417.97 186.146 417.849C185.924 417.729 185.63 417.668 185.265 417.668H183.888V424H182.79ZM189.101 424V418.545H190.128V419.412H190.185C190.284 419.118 190.459 418.888 190.71 418.719C190.963 418.549 191.25 418.464 191.57 418.464C191.636 418.464 191.714 418.466 191.804 418.471C191.896 418.476 191.968 418.482 192.021 418.489V419.504C191.978 419.492 191.902 419.479 191.793 419.465C191.684 419.449 191.575 419.44 191.467 419.44C191.216 419.44 190.992 419.494 190.795 419.6C190.601 419.704 190.447 419.85 190.334 420.037C190.22 420.222 190.163 420.432 190.163 420.669V424H189.101ZM195.095 424.11C194.557 424.11 194.095 423.995 193.706 423.766C193.321 423.534 193.022 423.208 192.812 422.789C192.603 422.368 192.499 421.874 192.499 421.308C192.499 420.75 192.603 420.257 192.812 419.831C193.022 419.405 193.316 419.072 193.692 418.833C194.071 418.594 194.514 418.474 195.02 418.474C195.328 418.474 195.626 418.525 195.915 418.627C196.204 418.729 196.463 418.889 196.693 419.107C196.923 419.324 197.104 419.607 197.236 419.955C197.369 420.301 197.435 420.721 197.435 421.216V421.592H193.099V420.797H196.395C196.395 420.518 196.338 420.27 196.224 420.055C196.111 419.837 195.951 419.665 195.745 419.54C195.541 419.414 195.302 419.352 195.027 419.352C194.729 419.352 194.469 419.425 194.246 419.572C194.026 419.716 193.856 419.906 193.735 420.14C193.616 420.372 193.557 420.624 193.557 420.896V421.518C193.557 421.882 193.621 422.192 193.749 422.448C193.879 422.704 194.06 422.899 194.292 423.034C194.524 423.167 194.795 423.233 195.106 423.233C195.307 423.233 195.49 423.205 195.656 423.148C195.822 423.089 195.965 423.001 196.086 422.885C196.206 422.769 196.299 422.626 196.363 422.455L197.368 422.636C197.287 422.932 197.143 423.192 196.934 423.414C196.728 423.634 196.469 423.806 196.157 423.929C195.847 424.05 195.493 424.11 195.095 424.11ZM203.123 418.545L201.145 424H200.009L198.027 418.545H199.167L200.549 422.743H200.605L201.983 418.545H203.123ZM204.121 424V418.545H205.183V424H204.121ZM204.657 417.704C204.473 417.704 204.314 417.642 204.181 417.519C204.051 417.394 203.986 417.245 203.986 417.072C203.986 416.897 204.051 416.747 204.181 416.624C204.314 416.499 204.473 416.436 204.657 416.436C204.842 416.436 204.999 416.499 205.13 416.624C205.262 416.747 205.328 416.897 205.328 417.072C205.328 417.245 205.262 417.394 205.13 417.519C204.999 417.642 204.842 417.704 204.657 417.704ZM208.962 424.11C208.425 424.11 207.962 423.995 207.574 423.766C207.188 423.534 206.889 423.208 206.679 422.789C206.47 422.368 206.366 421.874 206.366 421.308C206.366 420.75 206.47 420.257 206.679 419.831C206.889 419.405 207.183 419.072 207.559 418.833C207.938 418.594 208.381 418.474 208.888 418.474C209.195 418.474 209.494 418.525 209.782 418.627C210.071 418.729 210.33 418.889 210.56 419.107C210.79 419.324 210.971 419.607 211.103 419.955C211.236 420.301 211.302 420.721 211.302 421.216V421.592H206.966V420.797H210.262C210.262 420.518 210.205 420.27 210.091 420.055C209.978 419.837 209.818 419.665 209.612 419.54C209.408 419.414 209.169 419.352 208.895 419.352C208.596 419.352 208.336 419.425 208.113 419.572C207.893 419.716 207.723 419.906 207.602 420.14C207.484 420.372 207.424 420.624 207.424 420.896V421.518C207.424 421.882 207.488 422.192 207.616 422.448C207.746 422.704 207.928 422.899 208.16 423.034C208.392 423.167 208.663 423.233 208.973 423.233C209.174 423.233 209.357 423.205 209.523 423.148C209.689 423.089 209.832 423.001 209.953 422.885C210.074 422.769 210.166 422.626 210.23 422.455L211.235 422.636C211.154 422.932 211.01 423.192 210.802 423.414C210.596 423.634 210.336 423.806 210.024 423.929C209.714 424.05 209.36 424.11 208.962 424.11ZM213.653 424L212.048 418.545H213.145L214.214 422.551H214.267L215.34 418.545H216.437L217.503 422.533H217.556L218.618 418.545H219.715L218.113 424H217.03L215.922 420.062H215.841L214.733 424H213.653Z" fill="#E0E0E0"/>
<rect x="12" y="441" width="46" height="24" rx="4" fill="#2E2E2E"/>
<path d="M34.9999 447C33.5845 447 32.2147 447.5 31.1326 448.413C30.0505 449.325 29.3257 450.59 29.0864 451.985C28.8471 453.38 29.1086 454.815 29.8248 456.036C30.5409 457.257 31.6656 458.185 33 458.657C34.3345 459.129 35.7927 459.113 37.117 458.614C38.4414 458.115 39.5465 457.163 40.2372 455.928C40.9278 454.692 41.1595 453.253 40.8912 451.863C40.623 450.473 39.8721 449.223 38.7712 448.333" stroke="#E0E0E0" stroke-linecap="round" stroke-linejoin="round"/>
<path d="M41 448H38.3333V450.667" stroke="#E0E0E0" stroke-linecap="round" stroke-linejoin="round"/>
<line x1="66" y1="443.5" x2="66" y2="462.5" stroke="#404040" stroke-linecap="round"/>
<rect x="74" y="441" width="46" height="24" rx="4" fill="#2E2E2E"/>
<path d="M94.9998 451L91.6665 447.667M91.6665 447.667V450.333M91.6665 447.667H94.3332M98.9998 451L102.333 447.667M102.333 447.667V450.333M102.333 447.667H99.6665M94.9998 455L91.6665 458.333M91.6665 458.333V455.667M91.6665 458.333H94.3332M98.9998 455L102.333 458.333M102.333 458.333V455.667M102.333 458.333H99.6665" stroke="#E0E0E0" stroke-linecap="round" stroke-linejoin="round"/>
<rect x="128" y="441" width="46" height="24" rx="4" fill="#2E2E2E"/>
<path d="M144 458.357C144 458.528 144.061 458.691 144.171 458.812C144.28 458.932 144.429 459 144.583 459C144.738 459 144.886 458.932 144.996 458.812C145.105 458.691 145.167 458.528 145.167 458.357V447.643C145.167 447.472 145.105 447.309 144.996 447.188C144.886 447.068 144.738 447 144.583 447C144.429 447 144.28 447.068 144.171 447.188C144.061 447.309 144 447.472 144 447.643V458.357ZM156.833 458.357C156.833 458.528 156.895 458.691 157.004 458.812C157.114 458.932 157.262 459 157.417 459C157.571 459 157.72 458.932 157.829 458.812C157.939 458.691 158 458.528 158 458.357V447.643C158 447.472 157.939 447.309 157.829 447.188C157.72 447.068 157.571 447 157.417 447C157.262 447 157.114 447.068 157.004 447.188C156.895 447.309 156.833 447.472 156.833 447.643V458.357ZM152.669 454.761C152.582 454.891 152.543 455.053 152.56 455.214C152.576 455.374 152.648 455.522 152.759 455.628C152.87 455.733 153.013 455.789 153.16 455.783C153.307 455.778 153.446 455.711 153.55 455.597L155.394 453.568C155.479 453.507 155.55 453.423 155.597 453.323C155.645 453.223 155.669 453.112 155.667 452.999C155.669 452.887 155.645 452.775 155.598 452.676C155.55 452.576 155.48 452.491 155.394 452.43L153.551 450.401L153.485 450.339C153.373 450.247 153.234 450.203 153.095 450.215C152.956 450.226 152.825 450.292 152.726 450.401L152.669 450.473C152.586 450.597 152.546 450.75 152.557 450.903C152.567 451.057 152.627 451.201 152.726 451.31L153.676 452.357H150.732L150.713 452.359H148.324L149.274 451.311L149.336 451.231C149.408 451.12 149.446 450.988 149.445 450.852C149.444 450.716 149.404 450.584 149.331 450.475L149.273 450.403L149.2 450.334C149.1 450.255 148.98 450.213 148.856 450.214C148.733 450.215 148.613 450.26 148.514 450.34L148.448 450.403L146.605 452.432L146.547 452.477C146.479 452.542 146.425 452.622 146.388 452.712C146.351 452.803 146.332 452.901 146.333 453C146.331 453.113 146.354 453.224 146.402 453.324C146.45 453.424 146.52 453.509 146.606 453.57L148.449 455.599L148.515 455.661C148.627 455.754 148.766 455.798 148.906 455.787C149.046 455.776 149.177 455.709 149.276 455.6C149.375 455.491 149.435 455.346 149.445 455.192C149.455 455.038 149.415 454.885 149.331 454.761L149.274 454.689L148.324 453.644H151.268L151.287 453.643H153.676L152.726 454.689L152.669 454.761Z" fill="#E0E0E0"/>
<rect x="182" y="441" width="46" height="24" rx="4" fill="#2E2E2E"/>
<path d="M199.643 446C199.472 446 199.309 446.061 199.188 446.171C199.068 446.28 199 446.429 199 446.583C199 446.738 199.068 446.886 199.188 446.996C199.309 447.105 199.472 447.167 199.643 447.167H210.357C210.528 447.167 210.691 447.105 210.812 446.996C210.932 446.886 211 446.738 211 446.583C211 446.429 210.932 446.28 210.812 446.171C210.691 446.061 210.528 446 210.357 446H199.643ZM202.619 454.726C202.728 454.627 202.872 454.567 203.026 454.557C203.179 454.546 203.332 454.586 203.455 454.669L203.527 454.726L204.573 455.676V453.288L204.571 453.268V450.324L203.526 451.274L203.454 451.331C203.33 451.415 203.177 451.455 203.023 451.445C202.869 451.434 202.724 451.374 202.615 451.275C202.506 451.176 202.44 451.045 202.429 450.905C202.418 450.765 202.462 450.627 202.555 450.514L202.617 450.449L204.646 448.606C204.707 448.52 204.792 448.45 204.892 448.402C204.991 448.355 205.103 448.331 205.215 448.333C205.431 448.333 205.622 448.418 205.739 448.548L205.784 448.606L207.813 450.45L207.876 450.515C207.956 450.614 208.001 450.734 208.002 450.857C208.003 450.98 207.961 451.101 207.882 451.201L207.813 451.274L207.741 451.331C207.632 451.404 207.5 451.444 207.364 451.445C207.228 451.446 207.095 451.408 206.984 451.336L206.904 451.274L205.857 450.324V452.712L205.859 452.732V455.676L206.905 454.726C207.014 454.627 207.159 454.567 207.313 454.556C207.466 454.546 207.619 454.586 207.743 454.669L207.815 454.726C207.924 454.825 207.99 454.956 208.001 455.095C208.012 455.234 207.968 455.373 207.877 455.485L207.815 455.551L205.786 457.394C205.725 457.48 205.64 457.55 205.54 457.598C205.441 457.645 205.329 457.669 205.217 457.667C205.104 457.669 204.993 457.645 204.893 457.598C204.794 457.55 204.709 457.48 204.648 457.394L202.619 455.551C202.559 455.497 202.512 455.433 202.479 455.362C202.447 455.291 202.43 455.215 202.43 455.139C202.43 455.062 202.447 454.986 202.479 454.915C202.512 454.844 202.559 454.78 202.619 454.726ZM199 459.417C199 459.262 199.068 459.114 199.188 459.004C199.309 458.895 199.472 458.833 199.643 458.833H210.357C210.528 458.833 210.691 458.895 210.812 459.004C210.932 459.114 211 459.262 211 459.417C211 459.571 210.932 459.72 210.812 459.829C210.691 459.939 210.528 460 210.357 460H199.643C199.472 460 199.309 459.939 199.188 459.829C199.068 459.72 199 459.571 199 459.417Z" fill="#E0E0E0"/>
<path d="M0 477V477.5H240V477V476.5H0V477Z" fill="#404040"/>
<g filter="url(#filter3_d_2198_685)">
<rect x="12" y="489" width="102" height="28" rx="4" fill="#C5C5C5"/>
<path d="M45.3553 508H43.6893L47.4326 497.598H49.2458L52.9891 508H51.3232L48.3824 499.487H48.3011L45.3553 508ZM45.6346 503.927H51.0388V505.247H45.6346V503.927ZM54.3694 510.926V500.199H55.8525V501.463H55.9794C56.0675 501.301 56.1944 501.113 56.3604 500.899C56.5263 500.686 56.7565 500.5 57.0511 500.341C57.3457 500.178 57.7351 500.097 58.2193 500.097C58.8491 500.097 59.4112 500.256 59.9056 500.574C60.3999 500.893 60.7876 501.351 61.0687 501.951C61.3531 502.55 61.4953 503.271 61.4953 504.115C61.4953 504.958 61.3548 505.681 61.0738 506.283C60.7927 506.883 60.4067 507.345 59.9157 507.67C59.4247 507.992 58.8644 508.152 58.2345 508.152C57.7605 508.152 57.3728 508.073 57.0714 507.914C56.7735 507.755 56.5398 507.568 56.3705 507.355C56.2012 507.142 56.0709 506.952 55.9794 506.786H55.888V510.926H54.3694ZM55.8575 504.099C55.8575 504.648 55.9371 505.129 56.0963 505.542C56.2554 505.955 56.4857 506.278 56.787 506.512C57.0884 506.742 57.4574 506.857 57.8942 506.857C58.348 506.857 58.7272 506.737 59.032 506.497C59.3367 506.253 59.567 505.923 59.7227 505.506C59.8819 505.09 59.9614 504.621 59.9614 504.099C59.9614 503.585 59.8836 503.122 59.7278 502.713C59.5754 502.303 59.3452 501.98 59.037 501.743C58.7323 501.506 58.3514 501.387 57.8942 501.387C57.4541 501.387 57.0816 501.5 56.7769 501.727C56.4755 501.954 56.2469 502.271 56.0912 502.677C55.9354 503.083 55.8575 503.557 55.8575 504.099ZM63.1968 510.926V500.199H64.6799V501.463H64.8069C64.8949 501.301 65.0219 501.113 65.1878 500.899C65.3537 500.686 65.584 500.5 65.8786 500.341C66.1732 500.178 66.5626 500.097 67.0468 500.097C67.6766 500.097 68.2387 500.256 68.733 500.574C69.2274 500.893 69.6151 501.351 69.8961 501.951C70.1806 502.55 70.3228 503.271 70.3228 504.115C70.3228 504.958 70.1822 505.681 69.9012 506.283C69.6202 506.883 69.2342 507.345 68.7432 507.67C68.2522 507.992 67.6918 508.152 67.062 508.152C66.588 508.152 66.2002 508.073 65.8989 507.914C65.6009 507.755 65.3673 507.568 65.198 507.355C65.0287 507.142 64.8983 506.952 64.8069 506.786H64.7155V510.926H63.1968ZM64.685 504.099C64.685 504.648 64.7646 505.129 64.9237 505.542C65.0828 505.955 65.3131 506.278 65.6145 506.512C65.9158 506.742 66.2849 506.857 66.7217 506.857C67.1754 506.857 67.5547 506.737 67.8594 506.497C68.1642 506.253 68.3944 505.923 68.5502 505.506C68.7093 505.09 68.7889 504.621 68.7889 504.099C68.7889 503.585 68.711 503.122 68.5552 502.713C68.4029 502.303 68.1726 501.98 67.8645 501.743C67.5597 501.506 67.1788 501.387 66.7217 501.387C66.2815 501.387 65.909 501.5 65.6043 501.727C65.3029 501.954 65.0744 502.271 64.9186 502.677C64.7629 503.083 64.685 503.557 64.685 504.099ZM73.5429 497.598V508H72.0243V497.598H73.5429ZM76.5459 510.926C76.3191 510.926 76.1125 510.907 75.9263 510.87C75.74 510.836 75.6012 510.799 75.5098 510.758L75.8755 509.514C76.1531 509.588 76.4003 509.62 76.617 509.61C76.8337 509.6 77.025 509.519 77.191 509.366C77.3603 509.214 77.5093 508.965 77.6379 508.62L77.8259 508.102L74.9714 500.199H76.5967L78.5725 506.253H78.6537L80.6295 500.199H82.2599L79.0448 509.041C78.8958 509.448 78.7062 509.791 78.476 510.072C78.2457 510.357 77.9715 510.57 77.6532 510.712C77.3349 510.854 76.9658 510.926 76.5459 510.926Z" fill="#121212"/>
</g>
<g filter="url(#filter4_d_2198_685)">
<rect x="126" y="489" width="102" height="28" rx="4.76757" fill="#2E2E2E" shape-rendering="crispEdges"/>
<path d="M161.564 501.078H159.98C159.919 500.739 159.805 500.441 159.639 500.184C159.473 499.927 159.27 499.708 159.03 499.529C158.789 499.349 158.52 499.214 158.222 499.122C157.928 499.031 157.614 498.985 157.283 498.985C156.683 498.985 156.147 499.136 155.672 499.437C155.202 499.739 154.829 500.181 154.555 500.763C154.284 501.345 154.149 502.056 154.149 502.896C154.149 503.743 154.284 504.457 154.555 505.04C154.829 505.622 155.204 506.062 155.678 506.36C156.152 506.658 156.685 506.807 157.277 506.807C157.606 506.807 157.917 506.763 158.212 506.675C158.51 506.584 158.779 506.45 159.02 506.274C159.26 506.098 159.463 505.883 159.629 505.629C159.798 505.371 159.915 505.077 159.98 504.745L161.564 504.75C161.48 505.261 161.315 505.732 161.072 506.162C160.831 506.589 160.521 506.958 160.142 507.269C159.766 507.577 159.336 507.816 158.852 507.985C158.368 508.155 157.84 508.239 157.267 508.239C156.367 508.239 155.564 508.026 154.86 507.599C154.156 507.169 153.6 506.555 153.194 505.756C152.791 504.957 152.589 504.003 152.589 502.896C152.589 501.786 152.793 500.832 153.199 500.037C153.605 499.238 154.161 498.625 154.865 498.198C155.569 497.768 156.37 497.553 157.267 497.553C157.819 497.553 158.334 497.633 158.811 497.792C159.292 497.947 159.724 498.178 160.107 498.482C160.489 498.784 160.806 499.153 161.056 499.59C161.307 500.023 161.476 500.519 161.564 501.078ZM165.591 508.27C165.096 508.27 164.649 508.178 164.25 507.996C163.85 507.809 163.534 507.54 163.3 507.188C163.07 506.836 162.955 506.404 162.955 505.893C162.955 505.453 163.039 505.09 163.209 504.806C163.378 504.521 163.606 504.296 163.894 504.13C164.182 503.964 164.504 503.839 164.859 503.755C165.215 503.67 165.577 503.606 165.946 503.562C166.413 503.507 166.793 503.463 167.084 503.429C167.375 503.392 167.587 503.333 167.719 503.252C167.851 503.17 167.917 503.038 167.917 502.856V502.82C167.917 502.376 167.792 502.033 167.541 501.789C167.294 501.545 166.925 501.423 166.434 501.423C165.923 501.423 165.52 501.537 165.225 501.764C164.934 501.987 164.732 502.236 164.621 502.51L163.193 502.185C163.363 501.711 163.61 501.328 163.935 501.037C164.263 500.743 164.641 500.529 165.068 500.397C165.494 500.262 165.943 500.194 166.413 500.194C166.725 500.194 167.055 500.231 167.404 500.306C167.756 500.377 168.085 500.509 168.389 500.702C168.697 500.895 168.95 501.171 169.146 501.53C169.342 501.885 169.441 502.348 169.441 502.917V508.097H167.958V507.031H167.897C167.798 507.227 167.651 507.42 167.455 507.61C167.258 507.799 167.006 507.957 166.698 508.082C166.39 508.207 166.021 508.27 165.591 508.27ZM165.921 507.051C166.341 507.051 166.7 506.968 166.998 506.802C167.299 506.636 167.527 506.419 167.683 506.152C167.842 505.881 167.922 505.591 167.922 505.283V504.278C167.868 504.332 167.763 504.383 167.607 504.43C167.455 504.474 167.28 504.513 167.084 504.547C166.888 504.577 166.696 504.606 166.51 504.633C166.324 504.657 166.168 504.677 166.043 504.694C165.748 504.731 165.479 504.794 165.235 504.882C164.995 504.97 164.802 505.097 164.656 505.263C164.514 505.426 164.443 505.642 164.443 505.913C164.443 506.289 164.582 506.573 164.859 506.766C165.137 506.956 165.491 507.051 165.921 507.051ZM172.982 503.465V508.097H171.463V500.296H172.921V501.565H173.018C173.197 501.152 173.478 500.821 173.861 500.57C174.247 500.319 174.733 500.194 175.318 500.194C175.85 500.194 176.316 500.306 176.715 500.529C177.115 500.749 177.425 501.078 177.645 501.515C177.865 501.951 177.975 502.492 177.975 503.135V508.097H176.456V503.318C176.456 502.752 176.309 502.31 176.014 501.992C175.72 501.67 175.315 501.51 174.8 501.51C174.448 501.51 174.135 501.586 173.861 501.738C173.59 501.891 173.375 502.114 173.216 502.409C173.06 502.7 172.982 503.052 172.982 503.465ZM183.298 508.255C182.543 508.255 181.892 508.084 181.347 507.742C180.805 507.396 180.389 506.921 180.098 506.314C179.807 505.708 179.661 505.014 179.661 504.232C179.661 503.44 179.81 502.74 180.108 502.134C180.406 501.525 180.826 501.049 181.368 500.707C181.909 500.365 182.548 500.194 183.282 500.194C183.875 500.194 184.403 500.304 184.867 500.524C185.331 500.741 185.705 501.046 185.99 501.438C186.277 501.831 186.448 502.29 186.503 502.815H185.025C184.943 502.449 184.757 502.134 184.466 501.87C184.178 501.606 183.792 501.474 183.308 501.474C182.885 501.474 182.514 501.586 182.195 501.809C181.881 502.029 181.635 502.344 181.459 502.754C181.283 503.16 181.195 503.641 181.195 504.196C181.195 504.765 181.281 505.256 181.454 505.669C181.627 506.082 181.87 506.402 182.185 506.629C182.504 506.856 182.878 506.97 183.308 506.97C183.596 506.97 183.856 506.917 184.09 506.812C184.327 506.704 184.525 506.55 184.684 506.35C184.847 506.15 184.96 505.91 185.025 505.629H186.503C186.448 506.133 186.284 506.584 186.01 506.98C185.736 507.376 185.368 507.687 184.908 507.914C184.451 508.141 183.914 508.255 183.298 508.255ZM191.489 508.255C190.72 508.255 190.058 508.09 189.503 507.762C188.951 507.43 188.524 506.965 188.223 506.365C187.925 505.762 187.776 505.056 187.776 504.247C187.776 503.448 187.925 502.744 188.223 502.134C188.524 501.525 188.944 501.049 189.483 500.707C190.024 500.365 190.658 500.194 191.382 500.194C191.822 500.194 192.249 500.267 192.662 500.413C193.075 500.558 193.446 500.787 193.775 501.098C194.103 501.41 194.362 501.814 194.552 502.312C194.741 502.806 194.836 503.407 194.836 504.115V504.654H188.634V503.516H193.348C193.348 503.116 193.267 502.762 193.104 502.454C192.942 502.143 192.713 501.897 192.418 501.718C192.127 501.538 191.785 501.449 191.392 501.449C190.966 501.449 190.593 501.554 190.275 501.764C189.96 501.97 189.716 502.241 189.544 502.576C189.374 502.908 189.29 503.269 189.29 503.658V504.547C189.29 505.068 189.381 505.512 189.564 505.878C189.75 506.243 190.009 506.523 190.341 506.716C190.673 506.905 191.061 507 191.504 507C191.792 507 192.054 506.959 192.291 506.878C192.528 506.794 192.733 506.668 192.906 506.502C193.079 506.336 193.211 506.132 193.302 505.888L194.74 506.147C194.624 506.57 194.418 506.941 194.12 507.259C193.825 507.574 193.455 507.82 193.008 507.996C192.564 508.168 192.058 508.255 191.489 508.255ZM198.04 497.695V508.097H196.521V497.695H198.04Z" fill="#D0D0D0"/>
</g>
</g>
<rect x="0.5" y="0.5" width="239" height="528" rx="7.5" stroke="#27272A"/>
<defs>
<filter id="filter0_i_2198_685" x="11.5" y="156.5" width="92" height="23" filterUnits="userSpaceOnUse" color-interpolation-filters="sRGB">
<feFlood flood-opacity="0" result="BackgroundImageFix"/>
<feBlend mode="normal" in="SourceGraphic" in2="BackgroundImageFix" result="shape"/>
<feColorMatrix in="SourceAlpha" type="matrix" values="0 0 0 0 0 0 0 0 0 0 0 0 0 0 0 0 0 0 127 0" result="hardAlpha"/>
<feOffset dy="4"/>
<feGaussianBlur stdDeviation="2"/>
<feComposite in2="hardAlpha" operator="arithmetic" k2="-1" k3="1"/>
<feColorMatrix type="matrix" values="0 0 0 0 0 0 0 0 0 0 0 0 0 0 0 0 0 0 0.25 0"/>
<feBlend mode="normal" in2="shape" result="effect1_innerShadow_2198_685"/>
</filter>
<filter id="filter1_i_2198_685" x="136.5" y="156.5" width="92" height="23" filterUnits="userSpaceOnUse" color-interpolation-filters="sRGB">
<feFlood flood-opacity="0" result="BackgroundImageFix"/>
<feBlend mode="normal" in="SourceGraphic" in2="BackgroundImageFix" result="shape"/>
<feColorMatrix in="SourceAlpha" type="matrix" values="0 0 0 0 0 0 0 0 0 0 0 0 0 0 0 0 0 0 127 0" result="hardAlpha"/>
<feOffset dy="4"/>
<feGaussianBlur stdDeviation="2"/>
<feComposite in2="hardAlpha" operator="arithmetic" k2="-1" k3="1"/>
<feColorMatrix type="matrix" values="0 0 0 0 0 0 0 0 0 0 0 0 0 0 0 0 0 0 0.25 0"/>
<feBlend mode="normal" in2="shape" result="effect1_innerShadow_2198_685"/>
</filter>
<filter id="filter2_d_2198_685" x="93.9279" y="334" width="14.1441" height="15.2162" filterUnits="userSpaceOnUse" color-interpolation-filters="sRGB">
<feFlood flood-opacity="0" result="BackgroundImageFix"/>
<feColorMatrix in="SourceAlpha" type="matrix" values="0 0 0 0 0 0 0 0 0 0 0 0 0 0 0 0 0 0 127 0" result="hardAlpha"/>
<feMorphology radius="2.14413" operator="erode" in="SourceAlpha" result="effect1_dropShadow_2198_685"/>
<feOffset dy="2.14413"/>
<feGaussianBlur stdDeviation="1.60809"/>
<feComposite in2="hardAlpha" operator="out"/>
<feColorMatrix type="matrix" values="0 0 0 0 0.0823529 0 0 0 0 0.364706 0 0 0 0 0.988235 0 0 0 0.5 0"/>
<feBlend mode="normal" in2="BackgroundImageFix" result="effect1_dropShadow_2198_685"/>
<feBlend mode="normal" in="SourceGraphic" in2="effect1_dropShadow_2198_685" result="shape"/>
</filter>
<filter id="filter3_d_2198_685" x="8" y="487" width="110" height="36" filterUnits="userSpaceOnUse" color-interpolation-filters="sRGB">
<feFlood flood-opacity="0" result="BackgroundImageFix"/>
<feColorMatrix in="SourceAlpha" type="matrix" values="0 0 0 0 0 0 0 0 0 0 0 0 0 0 0 0 0 0 127 0" result="hardAlpha"/>
<feOffset dy="2"/>
<feGaussianBlur stdDeviation="2"/>
<feComposite in2="hardAlpha" operator="out"/>
<feColorMatrix type="matrix" values="0 0 0 0 0 0 0 0 0 0 0 0 0 0 0 0 0 0 0.25 0"/>
<feBlend mode="normal" in2="BackgroundImageFix" result="effect1_dropShadow_2198_685"/>
<feBlend mode="normal" in="SourceGraphic" in2="effect1_dropShadow_2198_685" result="shape"/>
</filter>
<filter id="filter4_d_2198_685" x="122" y="487" width="110" height="36" filterUnits="userSpaceOnUse" color-interpolation-filters="sRGB">
<feFlood flood-opacity="0" result="BackgroundImageFix"/>
<feColorMatrix in="SourceAlpha" type="matrix" values="0 0 0 0 0 0 0 0 0 0 0 0 0 0 0 0 0 0 127 0" result="hardAlpha"/>
<feOffset dy="2"/>
<feGaussianBlur stdDeviation="2"/>
<feComposite in2="hardAlpha" operator="out"/>
<feColorMatrix type="matrix" values="0 0 0 0 0 0 0 0 0 0 0 0 0 0 0 0 0 0 0.25 0"/>
<feBlend mode="normal" in2="BackgroundImageFix" result="effect1_dropShadow_2198_685"/>
<feBlend mode="normal" in="SourceGraphic" in2="effect1_dropShadow_2198_685" result="shape"/>
</filter>
<clipPath id="clip0_2198_685">
<rect width="240" height="529" rx="8" fill="white"/>
</clipPath>
<clipPath id="clip1_2198_685">
<rect width="10" height="10" fill="white" transform="translate(115 161)"/>
</clipPath>
<clipPath id="clip2_2198_685">
<rect x="12" y="187" width="216" height="216" rx="8" fill="white"/>
</clipPath>
</defs>
</svg>
